<svg height="48" width="48" viewBox="0 0 48 48" xmlns="http://www.w3.org/2000/svg"><circle cx="20.581" cy="20.894" r="8.211" fill="#6d97c4" stroke="#445e75" stroke-miterlimit="10" stroke-width=".286"/><g fill="#fff"><path d="M13.93 22.382c.21-2.41.68-3.856 2.178-5.353 1.616-1.617 3.113-2.367 5.942-3.01 1.39-.317-1.017-1.365-4.349-.118-1.79.669-3.606 2.416-4.243 4.962-.772 3.083.376 4.623.472 3.52z" opacity=".3"/><path stroke="#34497d" stroke-miterlimit="10" stroke-width=".2865" d="m22.55 24.35-.204-.202c-.185-.185-.54-.149-.687.07-.091.138-.516.578-.784.785.033-.137.097-.347.216-.687l1.074-3.048c.252-.722.405-1.158.405-1.53 0-.588-.434-.968-1.104-.968-1.693 0-3.018 1.53-3.509 2.186l-.017.023a.408.408 0 0 0-.092.356c.02.1.076.2.161.284l.153.152a.47.47 0 0 0 .333.141.51.51 0 0 0 .367-.166l.026-.03c.176-.235.506-.591.748-.81-.042.14-.1.314-.17.513l-.746 2.176c-.532 1.537-.73 2.112-.73 2.432 0 .42.267.867 1.018.867 2.335 0 3.486-1.735 3.613-1.937.128-.215.104-.43-.072-.607zM21.601 15.277c-.75 0-1.409.65-1.409 1.392 0 .845.566 1.391 1.443 1.391.86 0 1.527-.793 1.527-1.476 0-.603-.408-1.307-1.561-1.307z"/><path fill-rule="evenodd" stroke="#000" stroke-linecap="round" stroke-linejoin="round" stroke-width=".6" d="m34.638 28.492-11.155-6.104 4.79 11.897 1.907-3.089 3.771 4.123 1.428-1.392-3.855-4.083 3.114-1.352z"/></g></svg>