<svg version="1.1" xmlns="http://www.w3.org/2000/svg" width="44" height="44" viewBox="0 0 100 100" style="fill: #572C7E"><g xmlns="http://www.w3.org/2000/svg" transform="translate(0 -30)"><path d="M50 126.187c5.389-6.154 33.12-38.872 33.12-60.461 0-18.262-14.857-33.12-33.12-33.12-18.263 0-33.12 14.858-33.12 33.12 0 21.589 27.73 54.308 33.12 60.46zm0-83.835c12.91 0 23.374 10.465 23.374 23.374 0 12.91-10.465 23.375-23.374 23.375-12.91 0-23.374-10.465-23.374-23.375 0-12.909 10.465-23.374 23.374-23.374z"/><path d="M50 30c-19.603 0-35.55 16.004-35.55 35.676 0 10.466 5.848 24.322 17.38 41.182 8.533 12.474 17.185 22.055 17.272 22.15L50 130l.898-.991c.087-.096 8.739-9.677 17.27-22.15C79.703 89.996 85.55 76.141 85.55 65.675 85.55 46.004 69.603 30 50 30zm0 2.438c18.263 0 33.12 14.91 33.12 33.238 0 21.665-27.731 54.5-33.12 60.675-5.39-6.176-33.12-39.01-33.12-60.675 0-18.327 14.857-33.238 33.12-33.238z" fill="#fff"/><path d="M50 89.1c12.91 0 23.374-10.464 23.374-23.374 0-12.909-10.465-23.374-23.374-23.374-12.91 0-23.374 10.465-23.374 23.374 0 12.91 10.465 23.375 23.374 23.375zm0-34.393c6.086 0 11.02 4.934 11.02 11.02 0 6.086-4.935 11.019-11.02 11.019s-11.02-4.934-11.02-11.02c0-6.085 4.934-11.019 11.02-11.019z" fill="#fff"/><circle cx="50" cy="65.726" r="11.019"/></g></svg>