<?xml version="1.0" encoding="UTF-8" standalone="no"?>
<!-- Created with Inkscape (http://www.inkscape.org/) -->

<svg
   xmlns:dc="http://purl.org/dc/elements/1.1/"
   xmlns:cc="http://creativecommons.org/ns#"
   xmlns:rdf="http://www.w3.org/1999/02/22-rdf-syntax-ns#"
   xmlns:svg="http://www.w3.org/2000/svg"
   xmlns="http://www.w3.org/2000/svg"
   xmlns:sodipodi="http://sodipodi.sourceforge.net/DTD/sodipodi-0.dtd"
   xmlns:inkscape="http://www.inkscape.org/namespaces/inkscape"
   width="32px"
   height="32px"
   id="svg5520"
   version="1.1"
   inkscape:version="0.48.4 r9939"
   sodipodi:docname="pg32.svg">
  <defs
     id="defs5522" />
  <sodipodi:namedview
     id="base"
     pagecolor="#ffffff"
     bordercolor="#666666"
     borderopacity="1.0"
     inkscape:pageopacity="0.0"
     inkscape:pageshadow="2"
     inkscape:zoom="15.836083"
     inkscape:cx="16.178783"
     inkscape:cy="16.204939"
     inkscape:current-layer="layer1"
     showgrid="true"
     inkscape:grid-bbox="true"
     inkscape:document-units="px"
     inkscape:window-width="1920"
     inkscape:window-height="1031"
     inkscape:window-x="0"
     inkscape:window-y="25"
     inkscape:window-maximized="1" />
  <metadata
     id="metadata5525">
    <rdf:RDF>
      <cc:Work
         rdf:about="">
        <dc:format>image/svg+xml</dc:format>
        <dc:type
           rdf:resource="http://purl.org/dc/dcmitype/StillImage" />
        <dc:title></dc:title>
      </cc:Work>
    </rdf:RDF>
  </metadata>
  <g
     id="layer1"
     inkscape:label="Layer 1"
     inkscape:groupmode="layer">
    <path
       style="fill:none;stroke:#000000;stroke-width:0.9155795;stroke-linecap:round;stroke-linejoin:round;stroke-miterlimit:4;stroke-opacity:1"
       id="path2466-5"
       d="m 14.667628,21.405719 c -0.101765,3.636984 0.16297,6.522863 0.518845,7.412971 0.3561,0.890013 1.530399,2.209084 4.150927,1.647703 2.189292,-0.469418 3.191991,-1.377711 3.537654,-3.38255 0.25459,-1.47502 0.607965,-4.520227 0.670925,-5.359551"
       inkscape:connector-curvature="0"
       sodipodi:nodetypes="ccccc" />
    <path
       style="fill:none;stroke:#000000;stroke-width:0.9155795;stroke-linecap:round;stroke-linejoin:round;stroke-miterlimit:4;stroke-opacity:1"
       id="path2468-0"
       d="m 12.784164,2.7607757 c 0,0 -12.07005687,-4.8489768 -11.5185177,6.1779151 0.1173513,2.3458952 3.5686575,17.7506082 7.4391079,13.0975702 2.3419198,-2.182519 2.6935328,-3.036114 2.6935328,-3.036114"
       inkscape:connector-curvature="0"
       sodipodi:nodetypes="cccc" />
    <path
       style="fill:none;stroke:#000000;stroke-width:0.9155795;stroke-linecap:round;stroke-linejoin:round;stroke-miterlimit:4;stroke-opacity:1"
       id="path2470-7"
       d="m 18.34721,1.8757494 c -0.410659,0.128765 6.599475,-2.56264998 10.583396,2.52798 1.407252,1.7983907 -0.223502,9.1460936 -4.124516,14.9348086"
       inkscape:connector-curvature="0" />
    <path
       id="path2472-2"
       d="m 24.806018,18.149779 c 0,0 0.254221,1.251315 3.949037,0.488674 1.618877,-0.334356 0.644612,2.127022 -0.997247,2.88952 -1.347458,0.625366 -4.368444,0.785623 -4.417813,-0.07855 -0.127003,-2.229614 1.590003,-2.741009 1.466095,-3.299677 C 24.694094,17.646599 23.926217,18.341543 23.418297,17.11014 22.974874,16.035326 17.336811,7.7928847 24.981866,9.0170281 25.261927,8.9590665 22.987941,1.7451871 15.833262,1.6278953 8.6802008,1.510544 8.9148677,10.424577 8.9148677,10.424577"
       style="fill:none;stroke:#000000;stroke-width:0.9155795;stroke-linecap:round;stroke-linejoin:bevel;stroke-miterlimit:4;stroke-opacity:1"
       inkscape:connector-curvature="0"
       sodipodi:nodetypes="cccccccsc" />
    <path
       style="fill:none;stroke:#000000;stroke-width:0.9155795;stroke-linecap:round;stroke-linejoin:round;stroke-miterlimit:4;stroke-opacity:1"
       id="path2474-7"
       d="m 13.077434,20.101037 c -0.997247,1.113967 -0.703952,1.309573 -2.697353,1.720017 -2.0168953,0.415717 -0.8308378,0.824636 -0.05856,1.053341 1.659248,0.303411 2.970107,0.793811 4.573535,-0.915423 0.446435,-0.625009 -0.0023,-1.897093 -0.615893,-2.151302 -0.296305,-0.122731 -0.692503,-0.276549 -1.201744,0.293367 z"
       inkscape:connector-curvature="0"
       sodipodi:nodetypes="cccccc" />
    <path
       style="fill:none;stroke:#000000;stroke-width:0.9155795;stroke-linecap:round;stroke-linejoin:round;stroke-miterlimit:4;stroke-opacity:1"
       id="path2476-1"
       d="m 13.012142,20.081576 c -0.100454,-0.654977 0.215207,-1.434363 0.553527,-2.346192 0.508431,-1.368106 1.681527,-2.736427 0.743109,-7.076236 C 13.6093,7.4251562 8.917736,9.9861164 8.9147964,10.424613 c -0.00238,0.438365 0.2122081,2.222641 -0.078313,4.300449 -0.3791541,2.711303 1.7252306,5.00439 4.1484626,4.769782"
       inkscape:connector-curvature="0" />
    <path
       id="path2478-4"
       d="m 11.895829,10.358879 c -0.02119,0.149772 0.274192,0.549409 0.659297,0.602824 0.38445,0.05367 0.713498,-0.258696 0.734374,-0.408325 0.02094,-0.149772 -0.274121,-0.314742 -0.659381,-0.368359 -0.384664,-0.05368 -0.713879,0.02452 -0.734219,0.17386 l -7.1e-5,0 z"
       style="fill:none;stroke:#000000;stroke-width:0.30519071;stroke-linecap:butt;stroke-linejoin:miter;stroke-miterlimit:4;stroke-opacity:1"
       inkscape:connector-curvature="0" />
    <path
       id="path2480-8"
       d="m 23.60575,10.05354 c 0.02095,0.149772 -0.274121,0.549421 -0.659298,0.602824 -0.384747,0.05367 -0.713808,-0.258697 -0.734885,-0.408314 -0.02036,-0.149771 0.274704,-0.3147416 0.659524,-0.368359 0.384807,-0.053677 0.713795,0.024399 0.734659,0.173932 l 0,-8.3e-5 z"
       style="fill:none;stroke:#000000;stroke-width:0.15259536;stroke-linecap:butt;stroke-linejoin:miter;stroke-miterlimit:4;stroke-opacity:1"
       inkscape:connector-curvature="0" />
    <path
       style="fill:none;stroke:#000000;stroke-width:0.9155795;stroke-linecap:round;stroke-linejoin:round;stroke-miterlimit:4;stroke-opacity:1"
       id="path2482-4"
       d="m 24.981866,9.0170638 c 0.06332,1.1747862 -0.253055,1.9749652 -0.292937,3.2255532 -0.05903,1.817779 0.866662,3.89836 -0.528188,5.981513"
       inkscape:connector-curvature="0" />
    <path
       style="fill:#000000;fill-opacity:1;stroke:none"
       d="m 10.657368,19.480871 2.296026,-0.05284 -1.008851,1.477186 -1.739418,-0.158269 z"
       id="path11678"
       inkscape:connector-curvature="0" />
    <path
       id="path2464"
       d="M 28.037832,19.286385 C 24.632704,19.988779 24.398621,18.835868 24.398621,18.835868 27.993903,13.501061 29.496844,6.7292964 28.199827,5.0719534 24.661471,0.55101272 18.536388,2.6891271 18.434176,2.7446369 l -0.03297,0.00595 c -0.67273,-0.1396522 -1.425622,-0.2228454 -2.271802,-0.2366634 -1.540777,-0.02535 -2.709506,0.4039336 -3.596364,1.076466 0,0 -10.9265362,-4.50130276 -10.4183551,5.6612481 0.1080679,2.1620014 3.0987525,16.3586504 6.6658748,12.0706274 1.3037893,-1.567996 2.5634953,-2.89378 2.5634953,-2.89378 0.625698,0.415633 1.374735,0.627651 2.159989,0.551503 l 0.06094,-0.05177 c -0.01893,0.194689 -0.01071,0.385116 0.02452,0.610536 -0.918947,1.026716 -0.64892,1.206981 -2.485931,1.585123 -1.8588043,0.38307 -0.76683,1.065124 -0.05392,1.2434 0.864318,0.216089 2.86392,0.522296 4.21503,-1.369118 l -0.05392,0.215815 c 0.360064,0.288378 0.612905,1.87587 0.570522,3.314923 -0.04237,1.439137 -0.0707,2.427137 0.213031,3.198871 0.283713,0.771638 0.566464,2.508009 2.981377,1.990532 2.017883,-0.432355 3.063547,-1.553025 3.209022,-3.422231 0.103185,-1.328889 0.336843,-1.132427 0.351602,-2.32052 l 0.18738,-0.562572 c 0.216077,-1.801367 0.03439,-2.382516 1.277523,-2.112228 l 0.302114,0.02654 c 0.915019,0.04166 2.112598,-0.147177 2.815455,-0.473869 1.513499,-0.702382 2.411117,-1.875109 0.918804,-1.566972 l 1.07e-4,0 z"
       style="fill:#316192;fill-opacity:1;stroke:#ffffff;stroke-width:0.84381092;stroke-linecap:round;stroke-linejoin:round;stroke-miterlimit:4;stroke-opacity:1"
       inkscape:connector-curvature="0" />
    <path
       style="fill:#316192;fill-opacity:1;stroke:#ffffff;stroke-width:0.84381092;stroke-linecap:round;stroke-linejoin:round;stroke-miterlimit:4;stroke-opacity:1"
       id="path2466"
       d="m 15.410964,20.318981 c -0.09379,3.351927 0.02357,6.727205 0.351542,7.547497 0.328179,0.820388 1.030502,2.415878 3.445617,1.898496 2.017681,-0.432533 2.751816,-1.269667 3.070391,-3.11739 0.23462,-1.35943 0.686958,-5.134821 0.744967,-5.908364"
       inkscape:connector-curvature="0" />
    <path
       style="fill:#316192;fill-opacity:1;stroke:#ffffff;stroke-width:0.84381092;stroke-linecap:round;stroke-linejoin:round;stroke-miterlimit:4;stroke-opacity:1"
       id="path2468"
       d="m 12.516243,3.5154659 c 0,0 -10.9339863,-4.46887055 -10.4256743,5.6936565 C 2.1986366,11.371135 5.1895355,25.568297 8.7565864,21.280024 10.060102,19.711837 11.238995,18.48191 11.238995,18.48191"
       inkscape:connector-curvature="0" />
    <path
       style="fill:#316192;fill-opacity:1;stroke:#ffffff;stroke-width:0.84381092;stroke-linecap:round;stroke-linejoin:round;stroke-miterlimit:4;stroke-opacity:1"
       id="path2470"
       d="M 18.422191,2.6998148 C 18.043715,2.8184754 24.504356,0.33804274 28.175999,5.0296427 29.472946,6.687057 27.970004,13.45881 24.374781,18.793771"
       inkscape:connector-curvature="0" />
    <path
       id="path2472"
       d="m 24.37471,18.793771 c 0,0 0.234299,1.153232 3.639497,0.450363 1.49198,-0.308137 0.594088,0.864721 -0.919077,1.567461 -1.241841,0.576343 -4.026018,0.724043 -4.071519,-0.07236 -0.116994,-2.054838 1.465379,-1.430567 1.35117,-1.945448 -0.103184,-0.463709 -0.810901,-0.918808 -1.278997,-2.0537 C 22.687113,15.749517 17.490997,8.1531865 24.536776,9.2813661 24.794902,9.2279271 22.699158,2.5795358 16.1053,2.4714321 9.5129309,2.3633642 9.7292095,10.578586 9.7292095,10.578586"
       style="fill:#316192;fill-opacity:1;stroke:#ffffff;stroke-width:0.84381092;stroke-linecap:round;stroke-linejoin:bevel;stroke-miterlimit:4;stroke-opacity:1"
       inkscape:connector-curvature="0" />
    <path
       style="fill:#316192;fill-opacity:1;stroke:#ffffff;stroke-width:0.84381092;stroke-linecap:round;stroke-linejoin:round;stroke-miterlimit:4;stroke-opacity:1"
       id="path2474"
       d="m 13.56549,19.496498 c -0.919077,1.026645 -0.648764,1.206922 -2.485919,1.585183 -1.8588044,0.383153 -0.766699,1.06504 -0.05392,1.243162 0.864305,0.216351 2.863918,0.522475 4.215017,-1.369332 0.411444,-0.576021 -0.0023,-1.495098 -0.567606,-1.729384 -0.273074,-0.113068 -0.638219,-0.254864 -1.107541,0.270371 l 0,0 z"
       inkscape:connector-curvature="0" />
    <path
       style="fill:#316192;fill-opacity:1;stroke:#ffffff;stroke-width:0.84381092;stroke-linecap:round;stroke-linejoin:round;stroke-miterlimit:4;stroke-opacity:1"
       id="path2476"
       d="m 13.505315,19.478563 c -0.0926,-0.603622 0.198343,-1.321929 0.510144,-2.162288 0.468573,-1.260859 1.549716,-2.521933 0.684851,-6.521553 -0.644646,-2.9804974 -4.9684583,-0.620284 -4.9711599,-0.216148 -0.00238,0.404005 0.1955577,2.048422 -0.072244,3.963344 -0.3494237,2.498785 1.5900029,4.612119 3.8232959,4.3959"
       inkscape:connector-curvature="0" />
    <path
       id="path2478"
       d="m 12.476503,10.517982 c -0.01939,0.138036 0.252699,0.506361 0.60762,0.555574 0.354316,0.04939 0.657585,-0.238428 0.676806,-0.37631 0.01916,-0.138024 -0.252627,-0.290069 -0.607692,-0.339485 -0.354505,-0.04951 -0.657905,0.02249 -0.676674,0.160221 l -6e-5,0 z"
       style="fill:#ffffff;fill-opacity:1;fill-rule:nonzero;stroke:#ffffff;stroke-width:0.28126809;stroke-linecap:butt;stroke-linejoin:miter;stroke-miterlimit:4;stroke-opacity:1"
       inkscape:connector-curvature="0" />
    <path
       id="path2480"
       d="m 23.268537,10.236589 c 0.01916,0.138025 -0.252638,0.506348 -0.60762,0.555562 -0.354589,0.04939 -0.657857,-0.238416 -0.677281,-0.37631 -0.01881,-0.138024 0.253174,-0.290069 0.607823,-0.339485 0.354648,-0.04939 0.657846,0.02249 0.677078,0.160304 l 0,-7.1e-5 z"
       style="fill:#ffffff;fill-opacity:1;fill-rule:nonzero;stroke:#ffffff;stroke-width:0.14063405;stroke-linecap:butt;stroke-linejoin:miter;stroke-miterlimit:4;stroke-opacity:1"
       inkscape:connector-curvature="0" />
    <path
       style="fill:#316192;fill-opacity:1;stroke:#ffffff;stroke-width:0.84381092;stroke-linecap:round;stroke-linejoin:round;stroke-miterlimit:4;stroke-opacity:1"
       id="path2482"
       d="m 24.536776,9.2813541 c 0.05844,1.0827029 -0.233203,1.8201589 -0.269967,2.9727139 -0.05439,1.67529 0.798727,3.592781 -0.486782,5.512654"
       inkscape:connector-curvature="0" />
  </g>
</svg>
