<?xml version="1.0" encoding="utf-8"?>
<svg xmlns="http://www.w3.org/2000/svg">
<symbol id="business-color_award-49" viewBox="0 0 48 48"><g>
<path fill="#E6E6E6" d="M37,1H5C3.89543,1,3,1.89543,3,3v36c0,1.10457,0.89543,2,2,2h32c1.10457,0,2-0.89543,2-2V3
	C39,1.89543,38.10457,1,37,1z"/>
<polygon fill="#EFD358" points="44,29.2501 44,46 38,43 32,46 32,29.2501 "/>
<path fill="#B3B3B3" d="M30,14H12c-0.55273,0-1-0.44775-1-1s0.44727-1,1-1h18c0.55273,0,1,0.44775,1,1S30.55273,14,30,14z"/>
<path fill="#B3B3B3" d="M24,22H12c-0.55273,0-1-0.44775-1-1s0.44727-1,1-1h12c0.55273,0,1,0.44775,1,1S24.55273,22,24,22z"/>
<path fill="#B3B3B3" d="M24,30H12c-0.55273,0-1-0.44775-1-1s0.44727-1,1-1h12c0.55273,0,1,0.44775,1,1S24.55273,30,24,30z"/>
<path fill="#E86C60" d="M38,15c-4.96289,0-9,4.0376-9,9s4.03711,9,9,9s9-4.0376,9-9S42.96289,15,38,15z"/>
<circle fill="#C94949" cx="38" cy="24" r="4"/>
</g>
</symbol>
<symbol id="business-color_award-74" viewBox="0 0 48 48"><g>
<path fill="#B3B3B3" d="M8.00098,13c-0.34131,0-0.67432-0.1748-0.86133-0.49023c-0.28125-0.47461-0.12451-1.08789,0.3501-1.37012
	l12.16162-7.21191c0.4751-0.28125,1.08838-0.125,1.37061,0.35059c0.28125,0.47461,0.12451,1.08789-0.3501,1.37012L8.51025,12.86035
	C8.3501,12.95508,8.17432,13,8.00098,13z"/>
<path fill="#B3B3B3" d="M35.99902,13c-0.17334,0-0.34912-0.04492-0.50928-0.13965L23.32812,5.64844
	c-0.47461-0.28223-0.63135-0.89551-0.3501-1.37012c0.28223-0.47559,0.896-0.63184,1.37061-0.35059l12.16162,7.21191
	c0.47461,0.28223,0.63135,0.89551,0.3501,1.37012C36.67334,12.8252,36.34033,13,35.99902,13z"/>
<path fill="#A67C52" d="M42,41H2c-0.55225,0-1-0.44727-1-1V12c0-0.55273,0.44775-1,1-1h40c0.55225,0,1,0.44727,1,1v28
	C43,40.55273,42.55225,41,42,41z"/>
<circle fill="#A67C52" cx="22" cy="4" r="3"/>
<rect x="4" y="14" fill="#E6E6E6" width="36" height="24"/>
<path fill="#B3B3B3" d="M26,23H10c-0.55225,0-1-0.44727-1-1s0.44775-1,1-1h16c0.55225,0,1,0.44727,1,1S26.55225,23,26,23z"/>
<path fill="#B3B3B3" d="M22,31H10c-0.55225,0-1-0.44727-1-1s0.44775-1,1-1h12c0.55225,0,1,0.44727,1,1S22.55225,31,22,31z"/>
<polygon fill="#EFD358" points="44,30.2501 44,47 38,44 32,47 32,30.2501 "/>
<path fill="#E86C60" d="M38,16c-4.96289,0-9,4.0376-9,9s4.03711,9,9,9s9-4.0376,9-9S42.96289,16,38,16z"/>
<circle fill="#C94949" cx="38" cy="25" r="4"/>
</g>
</symbol>
<symbol id="business-color_badge" viewBox="0 0 48 48"><g>
<path fill="#43A6DD" d="M45,11H3c-1.10455,0-2,0.89539-2,2v32c0,1.10455,0.89545,2,2,2h42c1.10461,0,2-0.89545,2-2V13
	C47,11.89539,46.10461,11,45,11z M29,19H19c-1.10455,0-2-0.89545-2-2c0-1.10461,0.89545-2,2-2h10c1.10461,0,2,0.89539,2,2
	C31,18.10455,30.10461,19,29,19z"/>
<path fill="#FFFFFF" d="M15,33L15,33c-1.65686,0-3-1.34314-3-3V28c0-1.65685,1.34314-3,3-3H15c1.65685,0,3,1.34314,3,3V30
	C18,31.65686,16.65686,33,15,33z"/>
<path fill="#FFFFFF" d="M40,30H28c-0.55225,0-1-0.44775-1-1s0.44775-1,1-1h12c0.55225,0,1,0.44775,1,1S40.55225,30,40,30z"/>
<path fill="#FFFFFF" d="M35,36h-7c-0.55225,0-1-0.44775-1-1s0.44775-1,1-1h7c0.55225,0,1,0.44775,1,1S35.55225,36,35,36z"/>
<path fill="#BADEFC" d="M24,1c-2.75684,0-5,2.24316-5,5v10c0,0.55225,0.44775,1,1,1h8c0.55225,0,1-0.44775,1-1V6
	C29,3.24316,26.75684,1,24,1z M24,8c-1.10455,0-2-0.89545-2-2c0-1.10461,0.89545-2,2-2c1.10461,0,2,0.89539,2,2
	C26,7.10455,25.10461,8,24,8z"/>
<path fill="#FFFFFF" d="M18.5,34h-0.53094c-0.8327,0.62-1.85352,1-2.96906,1s-2.13635-0.38-2.96906-1H11.5
	C9.567,34,8,35.56701,8,37.5v0C8,38.32843,8.67157,39,9.5,39h11.00001C21.32843,39,22,38.32843,22,37.5v0
	C22,35.56701,20.433,34,18.5,34z"/>
</g>
</symbol>
<symbol id="business-color_bank" viewBox="0 0 48 48"><g>
<rect x="6" y="20" fill="#B3B3B3" width="6" height="26"/>
<rect x="16" y="20" fill="#B3B3B3" width="6" height="26"/>
<rect x="26" y="20" fill="#B3B3B3" width="6" height="26"/>
<rect x="36" y="20" fill="#B3B3B3" width="6" height="26"/>
<path fill="#E6E6E6" d="M46.479,15.12207l-22-12c-0.29883-0.16211-0.65918-0.16211-0.95801,0l-22,12
	C1.19971,15.29688,1,15.63379,1,16v6c0,0.55273,0.44775,1,1,1h44c0.55225,0,1-0.44727,1-1v-6
	C47,15.63379,46.80029,15.29688,46.479,15.12207z"/>
<path fill="#E6E6E6" d="M46,43H2c-0.55225,0-1,0.44727-1,1v2c0,0.55273,0.44775,1,1,1h44c0.55225,0,1-0.44727,1-1v-2
	C47,43.44727,46.55225,43,46,43z"/>
<circle fill="#B3B3B3" cx="24" cy="14" r="4"/>
<rect x="7.5" y="21.5" transform="matrix(6.730267e-11 -1 1 6.730267e-11 -15.5 33.5)" fill="#939393" width="3" height="6"/>
<rect x="17.5" y="21.5" transform="matrix(6.730267e-11 -1 1 6.730267e-11 -5.5 43.5)" fill="#939393" width="3" height="6"/>
<rect x="27.5" y="21.5" transform="matrix(6.730267e-11 -1 1 6.730267e-11 4.5 53.5)" fill="#939393" width="3" height="6"/>
<rect x="37.5" y="21.5" transform="matrix(6.730267e-11 -1 1 6.730267e-11 14.5 63.5)" fill="#939393" width="3" height="6"/>
</g>
</symbol>
<symbol id="business-color_board-30" viewBox="0 0 48 48"><g>
<path fill="#B3B3B3" d="M26,3h-4c-0.55273,0-1,0.44775-1,1v4c0,0.55225,0.44727,1,1,1h4c0.55273,0,1-0.44775,1-1V4
	C27,3.44775,26.55273,3,26,3z"/>
<path fill="#E6E6E6" d="M42,7H6C5.44727,7,5,7.44775,5,8v28c0,0.55225,0.44727,1,1,1s1-0.44775,1-1h34c0,0.55225,0.44727,1,1,1
	s1-0.44775,1-1V8C43,7.44775,42.55273,7,42,7z"/>
<path fill="#B3B3B3" d="M24,45c-0.55273,0-1-0.44775-1-1v-8c0-0.55225,0.44727-1,1-1s1,0.44775,1,1v8C25,44.55225,24.55273,45,24,45
	z"/>
<path fill="#B3B3B3" d="M11.99902,47c-0.21875,0-0.43945-0.07178-0.62402-0.21924c-0.43066-0.34473-0.50098-0.97412-0.15625-1.40527
	l8-10c0.34668-0.43018,0.97461-0.50146,1.40625-0.15625c0.43066,0.34473,0.50098,0.97412,0.15625,1.40527l-8,10
	C12.58301,46.87158,12.29297,47,11.99902,47z"/>
<path fill="#B3B3B3" d="M36.00098,47c-0.29395,0-0.58398-0.12842-0.78223-0.37549l-8-10
	c-0.34473-0.43115-0.27441-1.06055,0.15625-1.40527c0.43262-0.3457,1.06055-0.27393,1.40625,0.15625l8,10
	c0.34473,0.43115,0.27441,1.06055-0.15625,1.40527C36.44043,46.92822,36.21973,47,36.00098,47z"/>
<path fill="#898989" d="M46,37H2c-0.55273,0-1-0.44775-1-1s0.44727-1,1-1h44c0.55273,0,1,0.44775,1,1S46.55273,37,46,37z"/>
<path fill="#43A6DD" d="M25,13h-2c-0.55273,0-1,0.44775-1,1v14c0,0.55225,0.44727,1,1,1h2c0.55273,0,1-0.44775,1-1V14
	C26,13.44775,25.55273,13,25,13z"/>
<path fill="#43A6DD" d="M17,21h-2c-0.55273,0-1,0.44775-1,1v6c0,0.55225,0.44727,1,1,1h2c0.55273,0,1-0.44775,1-1v-6
	C18,21.44775,17.55273,21,17,21z"/>
<path fill="#43A6DD" d="M33,19h-2c-0.55273,0-1,0.44775-1,1v8c0,0.55225,0.44727,1,1,1h2c0.55273,0,1-0.44775,1-1v-8
	C34,19.44775,33.55273,19,33,19z"/>
</g>
</symbol>
<symbol id="business-color_books" viewBox="0 0 48 48"><g>
<path fill="#E86C60" d="M12,5H2C1.44772,5,1,5.44772,1,6v27h12V6C13,5.44772,12.55229,5,12,5z"/>
<path fill="#444444" d="M12,43H2c-0.55228,0-1-0.44772-1-1V32h12v10C13,42.55228,12.55229,43,12,43z"/>
<path fill="#FFFFFF" d="M8,23H6c-0.55228,0-1-0.44772-1-1V11c0-0.55229,0.44772-1,1-1h2c0.55229,0,1,0.44771,1,1v11
	C9,22.55228,8.55229,23,8,23z"/>
<path fill="#43A6DD" d="M35.44301,3.67613l-9.68988,2.47109c-0.53516,0.13647-0.85835,0.68094-0.72188,1.2161l6.67194,26.16267
	l11.62785-2.96531L36.6591,4.398C36.52263,3.86285,35.97816,3.53965,35.44301,3.67613z"/>
<path fill="#444444" d="M44.83315,40.49766l-9.68988,2.47109c-0.53516,0.13647-1.07962-0.18672-1.21609-0.72188l-2.47109-9.68988
	l11.62785-2.96531l2.47109,9.68987C45.69151,39.81672,45.36831,40.36118,44.83315,40.49766z"/>
<path fill="#FFFFFF" d="M36.01502,22.10634l-1.93797,0.49422c-0.53516,0.13647-1.07962-0.18672-1.2161-0.72188l-2.7182-10.65886
	c-0.13647-0.53516,0.18672-1.07962,0.72188-1.2161L32.8026,9.5095c0.53516-0.13647,1.07962,0.18672,1.2161,0.72188l2.7182,10.65886
	C36.87337,21.4254,36.55017,21.96987,36.01502,22.10634z"/>
<path fill="#E6E6E6" d="M24,5H14c-0.55229,0-1,0.44772-1,1v27h12V6C25,5.44772,24.55228,5,24,5z"/>
<path fill="#B3B3B3" d="M24,43H14c-0.55229,0-1-0.44772-1-1V32h12v10C25,42.55228,24.55228,43,24,43z"/>
<path fill="#FFFFFF" d="M20,23h-2c-0.55228,0-1-0.44772-1-1V11c0-0.55229,0.44772-1,1-1h2c0.55228,0,1,0.44771,1,1v11
	C21,22.55228,20.55228,23,20,23z"/>
</g>
</symbol>
<symbol id="business-color_briefcase-25" viewBox="0 0 48 48"><g>
<path fill="#444444" d="M43,32H5c-1.10457,0-2,0.89543-2,2v9c0,1.10457,0.89543,2,2,2h38c1.10457,0,2-0.89543,2-2v-9
	C45,32.89543,44.10457,32,43,32z"/>
<path fill="#444444" d="M32,11c-0.55273,0-1-0.44775-1-1V5H17v5c0,0.55225-0.44727,1-1,1s-1-0.44775-1-1V4c0-0.55225,0.44727-1,1-1
	h16c0.55273,0,1,0.44775,1,1v6C33,10.55225,32.55273,11,32,11z"/>
<path fill="#636363" d="M45,9H3c-1.10457,0-2,0.89543-2,2v21c0,1.10457,0.89543,2,2,2h42c1.10457,0,2-0.89543,2-2V11
	C47,9.89543,46.10457,9,45,9z"/>
<rect x="10" y="9" fill="#A67C52" width="4" height="23"/>
<rect x="34" y="9" fill="#A67C52" width="4" height="23"/>
<rect x="34" y="36" fill="#A67C52" width="4" height="9"/>
<rect x="10" y="36" fill="#A67C52" width="4" height="9"/>
<path fill="#E6E6E6" d="M15,37H9c-0.55229,0-1-0.44772-1-1v-4c0-0.55228,0.44771-1,1-1h6c0.55229,0,1,0.44772,1,1v4
	C16,36.55228,15.55229,37,15,37z"/>
<path fill="#E6E6E6" d="M39,37h-6c-0.55228,0-1-0.44772-1-1v-4c0-0.55228,0.44772-1,1-1h6c0.55228,0,1,0.44772,1,1v4
	C40,36.55228,39.55228,37,39,37z"/>
<rect x="10" y="37" fill="#916640" width="4" height="2"/>
<rect x="34" y="37" fill="#916640" width="4" height="2"/>
</g>
</symbol>
<symbol id="business-color_briefcase-26" viewBox="0 0 48 48"><g>
<path fill="#87613E" d="M43,33H5c-1.10457,0-2,0.89543-2,2v8c0,1.10457,0.89543,2,2,2h38c1.10457,0,2-0.89543,2-2v-8
	C45,33.89543,44.10457,33,43,33z"/>
<path fill="#87613E" d="M32,11c-0.55273,0-1-0.44775-1-1V5H17v5c0,0.55225-0.44727,1-1,1s-1-0.44775-1-1V4c0-0.55225,0.44727-1,1-1
	h16c0.55273,0,1,0.44775,1,1v6C33,10.55225,32.55273,11,32,11z"/>
<path fill="#A67C52" d="M45,9H3c-1.10457,0-2,0.89543-2,2v22c0,1.10457,0.89543,2,2,2h42c1.10457,0,2-0.89543,2-2V11
	C47,9.89543,46.10457,9,45,9z"/>
<path fill="#EFD358" d="M30,26H18c-0.55228,0-1-0.44772-1-1v-6c0-0.55228,0.44772-1,1-1h12c0.55228,0,1,0.44772,1,1v6
	C31,25.55228,30.55228,26,30,26z"/>
</g>
</symbol>
<symbol id="business-color_building" viewBox="0 0 48 48"><g>
<path fill="#444444" d="M24,7c-0.55273,0-1-0.44727-1-1V2c0-0.55273,0.44727-1,1-1s1,0.44727,1,1v4C25,6.55273,24.55273,7,24,7z"/>
<path fill="#E6E6E6" d="M32,11h-3V6c0-0.55273-0.44727-1-1-1h-8c-0.55273,0-1,0.44727-1,1v5h-3c-0.55273,0-1,0.44727-1,1v34
	c0,0.55273,0.44727,1,1,1h16c0.55273,0,1-0.44727,1-1V12C33,11.44727,32.55273,11,32,11z"/>
<path fill="#B3B3B3" d="M20,27H4c-0.55273,0-1,0.44727-1,1v18c0,0.55273,0.44727,1,1,1h16c0.55273,0,1-0.44727,1-1V28
	C21,27.44727,20.55273,27,20,27z"/>
<path fill="#444444" d="M44,21H28c-0.55273,0-1,0.44727-1,1v24c0,0.55273,0.44727,1,1,1h16c0.55273,0,1-0.44727,1-1V22
	C45,21.44727,44.55273,21,44,21z"/>
<path fill="#B3B3B3" d="M37,40h-2c-0.55228,0-1,0.44772-1,1v6h4v-6C38,40.44772,37.55228,40,37,40z"/>
<path fill="#E6E6E6" d="M13,41h-2c-0.55229,0-1,0.44772-1,1v5h4v-5C14,41.44772,13.55229,41,13,41z"/>
<path fill="#BADEFC" d="M34,29h-2c-0.55228,0-1-0.44772-1-1v-2c0-0.55228,0.44772-1,1-1h2c0.55228,0,1,0.44772,1,1v2
	C35,28.55228,34.55228,29,34,29z"/>
<path fill="#BADEFC" d="M40,29h-2c-0.55228,0-1-0.44772-1-1v-2c0-0.55228,0.44772-1,1-1h2c0.55228,0,1,0.44772,1,1v2
	C41,28.55228,40.55228,29,40,29z"/>
<path fill="#BADEFC" d="M34,35h-2c-0.55228,0-1-0.44772-1-1v-2c0-0.55228,0.44772-1,1-1h2c0.55228,0,1,0.44772,1,1v2
	C35,34.55228,34.55228,35,34,35z"/>
<path fill="#BADEFC" d="M40,35h-2c-0.55228,0-1-0.44772-1-1v-2c0-0.55228,0.44772-1,1-1h2c0.55228,0,1,0.44772,1,1v2
	C41,34.55228,40.55228,35,40,35z"/>
<path fill="#FFFFFF" d="M10,36H8c-0.55228,0-1-0.44772-1-1v-2c0-0.55228,0.44772-1,1-1h2c0.55229,0,1,0.44772,1,1v2
	C11,35.55228,10.55229,36,10,36z"/>
<path fill="#FFFFFF" d="M16,36h-2c-0.55229,0-1-0.44772-1-1v-2c0-0.55228,0.44771-1,1-1h2c0.55228,0,1,0.44772,1,1v2
	C17,35.55228,16.55228,36,16,36z"/>
</g>
</symbol>
<symbol id="business-color_bulb-63" viewBox="0 0 48 48"><g>
<path fill="#43A6DD" d="M6,25H2c-0.55225,0-1-0.44727-1-1s0.44775-1,1-1h4c0.55225,0,1,0.44727,1,1S6.55225,25,6,25z"/>
<path fill="#43A6DD" d="M11.27197,12.27246c-0.25586,0-0.51172-0.09766-0.70703-0.29297l-2.82812-2.8291
	c-0.39062-0.39062-0.39062-1.02344,0-1.41406s1.02344-0.39062,1.41406,0l2.82812,2.8291c0.39062,0.39062,0.39062,1.02344,0,1.41406
	C11.78369,12.1748,11.52783,12.27246,11.27197,12.27246z"/>
<path fill="#43A6DD" d="M24,7c-0.55225,0-1-0.44727-1-1V2c0-0.55273,0.44775-1,1-1s1,0.44727,1,1v4C25,6.55273,24.55225,7,24,7z"/>
<path fill="#43A6DD" d="M36.72803,12.27246c-0.25586,0-0.51172-0.09766-0.70703-0.29297c-0.39062-0.39062-0.39062-1.02344,0-1.41406
	l2.82812-2.8291c0.38965-0.39062,1.02344-0.39062,1.41406,0s0.39062,1.02344,0,1.41406l-2.82812,2.8291
	C37.24023,12.1748,36.98389,12.27246,36.72803,12.27246z"/>
<path fill="#43A6DD" d="M46,25h-4c-0.55225,0-1-0.44727-1-1s0.44775-1,1-1h4c0.55225,0,1,0.44727,1,1S46.55225,25,46,25z"/>
<path fill="#EFD358" d="M29,41H19v-5.01172c-5.33776-2.22651-8.67485-7.80107-7.88457-13.71942
	c0.85052-6.36943,6.45305-11.26616,12.87902-11.26886C31.16545,10.997,37,16.83019,37,24c0,5.25-3.18652,9.98047-8,11.98828V41z"/>
<path fill="#E6E6E6" d="M24.00001,47h-0.00001C21.23857,47,19,44.76143,19,42v-3h10v3C29,44.76143,26.76143,47,24.00001,47z"/>
<rect x="19" y="39" fill="#B3B3B3" width="10" height="2"/>
</g>
</symbol>
<symbol id="business-color_business-contact-86" viewBox="0 0 48 48"><g>
<rect x="18" y="24" fill-rule="evenodd" clip-rule="evenodd" fill="#87613E" width="12" height="15"/>
<path fill-rule="evenodd" clip-rule="evenodd" fill="#A67C52" d="M35,12v8c0,6.065-4.935,11-11,11s-11-4.935-11-11v-8H35z"/>
<path fill-rule="evenodd" clip-rule="evenodd" fill="#FFFFFF" d="M46,44.00925c0-1.66196-1.22893-3.54691-2.7505-4.2126L30,34
	c-1.688,1.25-3.754,2-6,2s-4.312-0.75-5.982-2L4.75359,39.79666C3.23283,40.46125,2,42.34967,2,44.00925v2.98782
	C2,47.55097,2.44982,48,3.00167,48h41.99666C45.55154,48,46,47.56212,46,46.99707V44.00925z"/>
<path fill-rule="evenodd" clip-rule="evenodd" fill="#444444" d="M13,11.9989c0-3.3131,2.53529-6.90436,5.65398-8.01818
	l7.4057-2.64489c0.51933-0.18547,1.1394,0.06233,1.38418,0.5519L29,5c3.31371,0,6,2.69303,6,6v6c0-2.76142-2.23858-5-5-5H18
	c-2.76142,0-5,2.23858-5,5V11.9989z"/>
<path fill-rule="evenodd" clip-rule="evenodd" fill="#43A6DD" d="M27.07758,38.30823l-2.47754-1.85822
	c-0.35559-0.26666-0.84448-0.26666-1.20007,0l-2.47754,1.85822c-0.48682,0.36511-0.53741,1.07678-0.10712,1.50708L23,42l-2,6h6l-2-6
	l2.18469-2.18469C27.61499,39.38501,27.56439,38.67334,27.07758,38.30823z"/>
<path fill-rule="evenodd" clip-rule="evenodd" fill="#444444" d="M20,48l-1.982-14L4.75359,39.79666
	C3.23283,40.46125,2,42.34967,2,44.00925v2.98782C2,47.55097,2.45093,48,2.99477,48H20z"/>
<path fill-rule="evenodd" clip-rule="evenodd" fill="#444444" d="M28,48l1.982-14l13.26441,5.79666
	C44.76717,40.46125,46,42.34967,46,44.00925v2.98782C46,47.55097,45.54908,48,45.00523,48H28z"/>
</g>
</symbol>
<symbol id="business-color_business-contact-87" viewBox="0 0 48 48"><g>
<path fill-rule="evenodd" clip-rule="evenodd" fill="#C6A279" d="M16.99757,31C13.6852,31,11,28.32529,11,25V14
	c0-7.18,5.82-13,13-13s13,5.82,13,13v11c0,3.31555-2.68453,6-5.99757,6H16.99757z"/>
<rect x="18" y="23" fill-rule="evenodd" clip-rule="evenodd" fill="#EAC3A2" width="12" height="22"/>
<path fill-rule="evenodd" clip-rule="evenodd" fill="#444444" d="M40.683,38.342L30,33l-6,12l-5.982-12L7.317,38.342
	C5.284,39.358,4,41.436,4,43.708v2.2864C4,46.54978,4.44922,47,5.00877,47h37.98244C43.54836,47,44,46.55603,44,45.9944V43.708
	C44,41.436,42.716,39.358,40.683,38.342z"/>
<polygon fill-rule="evenodd" clip-rule="evenodd" fill="#FFFFFF" points="18.018,33 14,39 24,45 "/>
<polygon fill-rule="evenodd" clip-rule="evenodd" fill="#FFFFFF" points="29.991,33 34,39 24.009,45 "/>
<path fill-rule="evenodd" clip-rule="evenodd" fill="#F1D9C5" d="M13,17.8728v2c0,6.065,4.935,11,11,11s11-4.935,11-11v-2
	c0-1.65685-1.34315-3-3-3c-3.48293,0-6.50377-1.97844-8-4.8728c-1.49623,2.89436-4.51707,4.8728-8,4.8728
	C14.34315,14.8728,13,16.21595,13,17.8728z"/>
</g>
</symbol>
<symbol id="business-color_businessman-03" viewBox="0 0 48 48"><g>
<path fill="#9ACCEF" d="M45,7H3C1.89543,7,1,7.89543,1,9v36c0,1.10457,0.89543,2,2,2h42c1.10457,0,2-0.89543,2-2V9
	C47,7.89543,46.10457,7,45,7z"/>
<polygon fill="#5A7A84" points="17,16 22,23 26,23 31,16 24,12 "/>
<rect x="12" y="1" fill="#75B4DB" width="24" height="11"/>
<path fill="#BADEFC" d="M36.42432,1.09424c-0.3501-0.16406-0.76562-0.11182-1.06445,0.1377L24,10.69849L12.64014,1.23193
	c-0.29883-0.24951-0.71436-0.30176-1.06445-0.1377C11.22461,1.25879,11,1.61182,11,2v18c0,0.36865,0.20312,0.70752,0.52832,0.88184
	C11.67578,20.96094,11.83838,21,12,21c0.19385,0,0.38721-0.05664,0.55469-0.16797L24,13.20184l11.44531,7.63019
	C35.61279,20.94336,35.80615,21,36,21c0.16162,0,0.32422-0.03906,0.47168-0.11816C36.79688,20.70752,37,20.36865,37,20V2
	C37,1.61182,36.77539,1.25879,36.42432,1.09424z"/>
<polygon fill="#335262" points="31,47 17,47 22,23 26,23 "/>
</g>
</symbol>
<symbol id="business-color_calculator" viewBox="0 0 48 48"><g>
<path fill="#335262" d="M41,1H8C6.89543,1,6,1.89543,6,3v42c0,1.10457,0.89543,2,2,2h33c1.10457,0,2-0.89543,2-2V3
	C43,1.89543,42.10457,1,41,1z"/>
<path fill="#E6E6E6" d="M37,7H12c-0.55273,0-1,0.44775-1,1v6c0,0.55225,0.44727,1,1,1h25c0.55273,0,1-0.44775,1-1V8
	C38,7.44775,37.55273,7,37,7z"/>
<path fill="#6A8A91" d="M17,19h-5c-0.55273,0-1,0.44775-1,1v4c0,0.55225,0.44727,1,1,1h5c0.55273,0,1-0.44775,1-1v-4
	C18,19.44775,17.55273,19,17,19z"/>
<path fill="#6A8A91" d="M27,19h-5c-0.55273,0-1,0.44775-1,1v4c0,0.55225,0.44727,1,1,1h5c0.55273,0,1-0.44775,1-1v-4
	C28,19.44775,27.55273,19,27,19z"/>
<path fill="#6A8A91" d="M37,19h-5c-0.55273,0-1,0.44775-1,1v4c0,0.55225,0.44727,1,1,1h5c0.55273,0,1-0.44775,1-1v-4
	C38,19.44775,37.55273,19,37,19z"/>
<path fill="#6A8A91" d="M17,27h-5c-0.55273,0-1,0.44775-1,1v4c0,0.55225,0.44727,1,1,1h5c0.55273,0,1-0.44775,1-1v-4
	C18,27.44775,17.55273,27,17,27z"/>
<path fill="#6A8A91" d="M27,27h-5c-0.55273,0-1,0.44775-1,1v4c0,0.55225,0.44727,1,1,1h5c0.55273,0,1-0.44775,1-1v-4
	C28,27.44775,27.55273,27,27,27z"/>
<path fill="#EA9860" d="M37,27h-5c-0.55273,0-1,0.44775-1,1v12c0,0.55225,0.44727,1,1,1h5c0.55273,0,1-0.44775,1-1V28
	C38,27.44775,37.55273,27,37,27z"/>
<path fill="#6A8A91" d="M17,35h-5c-0.55273,0-1,0.44775-1,1v4c0,0.55225,0.44727,1,1,1h5c0.55273,0,1-0.44775,1-1v-4
	C18,35.44775,17.55273,35,17,35z"/>
<path fill="#6A8A91" d="M27,35h-5c-0.55273,0-1,0.44775-1,1v4c0,0.55225,0.44727,1,1,1h5c0.55273,0,1-0.44775,1-1v-4
	C28,35.44775,27.55273,35,27,35z"/>
</g>
</symbol>
<symbol id="business-color_chair" viewBox="0 0 48 48"><g>
<path fill="#B3B3B3" d="M34,45h-9v-7c0-0.55225-0.44727-1-1-1s-1,0.44775-1,1v7h-9c-0.55273,0-1,0.44775-1,1s0.44727,1,1,1h20
	c0.55273,0,1-0.44775,1-1S34.55273,45,34,45z"/>
<path fill="#B3B3B3" d="M8,37H5V25h2c0.55273,0,1-0.44775,1-1s-0.44727-1-1-1H4c-0.55273,0-1,0.44775-1,1v14
	c0,0.55225,0.44727,1,1,1h4c0.55273,0,1-0.44775,1-1S8.55273,37,8,37z"/>
<path fill="#B3B3B3" d="M44,23h-3c-0.55273,0-1,0.44775-1,1s0.44727,1,1,1h2v12h-5c-0.55273,0-1,0.44775-1,1s0.44727,1,1,1h6
	c0.55273,0,1-0.44775,1-1V24C45,23.44775,44.55273,23,44,23z"/>
<path fill="#444444" d="M35,1H13c-1.10457,0-2,0.89543-2,2v28c0,0.55228,0.44771,1,1,1h24c0.55228,0,1-0.44772,1-1V3
	C37,1.89543,36.10457,1,35,1z"/>
<path fill="#636363" d="M36,30H12c-2.76142,0-5,2.23857-5,5v4h34v-4C41,32.23857,38.76143,30,36,30z"/>
</g>
</symbol>
<symbol id="business-color_chart-bar-33" viewBox="0 0 48 48"><g>
<path fill="#72C472" d="M28,25h-8c-0.55225,0-1,0.44775-1,1v18c0,0.55225,0.44775,1,1,1h8c0.55225,0,1-0.44775,1-1V26
	C29,25.44775,28.55225,25,28,25z"/>
<path fill="#9EDB9E" d="M12,33H4c-0.55225,0-1,0.44775-1,1v10c0,0.55225,0.44775,1,1,1h8c0.55225,0,1-0.44775,1-1V34
	C13,33.44775,12.55225,33,12,33z"/>
<path fill="#4DA34D" d="M44,17h-8c-0.55225,0-1,0.44775-1,1v26c0,0.55225,0.44775,1,1,1h8c0.55225,0,1-0.44775,1-1V18
	C45,17.44775,44.55225,17,44,17z"/>
<path fill="#B3B3B3" d="M24.70703,18.70703L37,6.41406V12c0,0.55225,0.44775,1,1,1s1-0.44775,1-1V4
	c0-0.13025-0.02661-0.25989-0.07721-0.38214c-0.10138-0.24445-0.2962-0.43927-0.54065-0.54065C38.25989,3.02661,38.13025,3,38,3h-8
	c-0.55225,0-1,0.44775-1,1s0.44775,1,1,1h5.58594L24,16.58594l-5.29297-5.29297c-0.39062-0.39062-1.02344-0.39062-1.41406,0l-8,8
	c-0.39062,0.39062-0.39062,1.02344,0,1.41406C9.48828,20.90234,9.74414,21,10,21s0.51172-0.09766,0.70703-0.29297L18,13.41406
	l5.29297,5.29297C23.68359,19.09766,24.31641,19.09766,24.70703,18.70703z"/>
</g>
</symbol>
<symbol id="business-color_chart-pie-36" viewBox="0 0 48 48"><g>
<path fill="#E86C60" d="M26,3c-0.55273,0-1,0.44775-1,1v18c0,0.55225,0.44727,1,1,1h18c0.55273,0,1-0.44775,1-1
	C45,11.52344,36.47656,3,26,3z"/>
<path fill="#EFD358" d="M38,27H21V10c0-0.55225-0.44727-1-1-1C9.52344,9,1,17.52344,1,28s8.52344,19,19,19s19-8.52344,19-19
	C39,27.44775,38.55273,27,38,27z"/>
</g>
</symbol>
<symbol id="business-color_chart" viewBox="0 0 48 48"><g>
<path fill="#E86C60" d="M25,14.05048C29.72424,14.51971,33.48029,18.2757,33.94952,23h13.02515
	C46.46313,11.1123,36.88824,1.53687,25,1.02533V14.05048z"/>
<path fill="#8680D8" d="M16.03656,30.03064C14.76398,28.35291,14,26.26819,14,24c0-5.1853,3.94678-9.44763,9-9.94952V1.02533
	C10.77985,1.55115,1,11.6532,1,24c0,5.67676,2.07153,10.87604,5.4928,14.89203L16.03656,30.03064z"/>
<path fill="#EFD358" d="M33.94952,25C33.44763,30.05322,29.18524,34,24,34c-2.53406,0-4.841-0.9502-6.60327-2.50385
	l-9.54492,8.86243C12.00781,44.46161,17.71216,47,24,47c12.34723,0,22.44885-9.7804,22.97467-22H33.94952z"/>
</g>
</symbol>
<symbol id="business-color_coins" viewBox="0 0 48 48"><g>
<path fill="#D8BC48" d="M25,31H9c-0.55225,0-1,0.44775-1,1v3c0,2.62598,4.52734,4,9,4s9-1.37402,9-4v-3
	C26,31.44775,25.55225,31,25,31z"/>
<path fill="#EFD358" d="M17,28c-4.47266,0-9,1.37402-9,4s4.52734,4,9,4s9-1.37402,9-4S21.47266,28,17,28z"/>
<path fill="#D8BC48" d="M25,26H9c-0.55225,0-1,0.44775-1,1v3c0,2.62598,4.52734,4,9,4s9-1.37402,9-4v-3
	C26,26.44775,25.55225,26,25,26z"/>
<path fill="#EFD358" d="M17,23c-4.47266,0-9,1.37402-9,4s4.52734,4,9,4s9-1.37402,9-4S21.47266,23,17,23z"/>
<path fill="#D8BC48" d="M25,21H9c-0.55225,0-1,0.44775-1,1v3c0,2.62598,4.52734,4,9,4s9-1.37402,9-4v-3
	C26,21.44775,25.55225,21,25,21z"/>
<path fill="#EFD358" d="M17,18c-4.47266,0-9,1.37402-9,4s4.52734,4,9,4s9-1.37402,9-4S21.47266,18,17,18z"/>
<path fill="#D8BC48" d="M25,16H9c-0.55225,0-1,0.44775-1,1v3c0,2.62598,4.52734,4,9,4s9-1.37402,9-4v-3
	C26,16.44775,25.55225,16,25,16z"/>
<path fill="#EFD358" d="M17,13c-4.47266,0-9,1.37402-9,4s4.52734,4,9,4s9-1.37402,9-4S21.47266,13,17,13z"/>
<path fill="#D8BC48" d="M25,11H9c-0.55225,0-1,0.44775-1,1v3c0,2.62598,4.52734,4,9,4s9-1.37402,9-4v-3
	C26,11.44775,25.55225,11,25,11z"/>
<path fill="#EFD358" d="M17,8c-4.47266,0-9,1.37402-9,4s4.52734,4,9,4s9-1.37402,9-4S21.47266,8,17,8z"/>
<path fill="#D8BC48" d="M25,6H9C8.44775,6,8,6.44775,8,7v3c0,2.62598,4.52734,4,9,4s9-1.37402,9-4V7C26,6.44775,25.55225,6,25,6z"/>
<path fill="#EFD358" d="M17,3c-4.47266,0-9,1.37402-9,4s4.52734,4,9,4s9-1.37402,9-4S21.47266,3,17,3z"/>
<path opacity="0.1" d="M26,7.56305C22.60016,8.39185,20,10.1571,20,13v3c0,0.33789,0.0415,0.67236,0.12354,1
	C20.0415,17.32764,20,17.66211,20,18v3c0,0.33789,0.0415,0.67236,0.12354,1C20.0415,22.32764,20,22.66211,20,23v3
	c0,0.33789,0.0415,0.67236,0.12354,1C20.0415,27.32764,20,27.66211,20,28v3c0,0.33789,0.0415,0.67236,0.12354,1
	C20.0415,32.32764,20,32.66211,20,33v3c0,0.33789,0.0415,0.67236,0.12354,1C20.0415,37.32764,20,37.66211,20,38v0.7851
	c3.29321-0.47754,6-1.75562,6-3.7851v-3c0-0.35736-0.09039-0.68933-0.24652-1C25.90961,30.68933,26,30.35736,26,30v-3
	c0-0.35736-0.09039-0.68933-0.24652-1C25.90961,25.68933,26,25.35736,26,25v-3c0-0.35736-0.09039-0.68933-0.24652-1
	C25.90961,20.68933,26,20.35736,26,20v-3c0-0.35736-0.09039-0.68933-0.24652-1C25.90961,15.68933,26,15.35736,26,15v-3
	c0-0.35736-0.09039-0.68933-0.24652-1C25.90961,10.68933,26,10.35736,26,10V7.56305z"/>
<path fill="#D8BC48" d="M39,37H23c-0.55225,0-1,0.44775-1,1v3c0,2.62598,4.52734,4,9,4s9-1.37402,9-4v-3
	C40,37.44775,39.55225,37,39,37z"/>
<path fill="#EFD358" d="M31,34c-4.47266,0-9,1.37402-9,4s4.52734,4,9,4s9-1.37402,9-4S35.47266,34,31,34z"/>
<path fill="#D8BC48" d="M39,32H23c-0.55225,0-1,0.44775-1,1v3c0,2.62598,4.52734,4,9,4s9-1.37402,9-4v-3
	C40,32.44775,39.55225,32,39,32z"/>
<path fill="#EFD358" d="M31,29c-4.47266,0-9,1.37402-9,4s4.52734,4,9,4s9-1.37402,9-4S35.47266,29,31,29z"/>
<path fill="#D8BC48" d="M39,27H23c-0.55225,0-1,0.44775-1,1v3c0,2.62598,4.52734,4,9,4s9-1.37402,9-4v-3
	C40,27.44775,39.55225,27,39,27z"/>
<path fill="#EFD358" d="M31,24c-4.47266,0-9,1.37402-9,4s4.52734,4,9,4s9-1.37402,9-4S35.47266,24,31,24z"/>
<path fill="#D8BC48" d="M39,22H23c-0.55225,0-1,0.44775-1,1v3c0,2.62598,4.52734,4,9,4s9-1.37402,9-4v-3
	C40,22.44775,39.55225,22,39,22z"/>
<path fill="#EFD358" d="M31,19c-4.47266,0-9,1.37402-9,4s4.52734,4,9,4s9-1.37402,9-4S35.47266,19,31,19z"/>
<path fill="#D8BC48" d="M39,17H23c-0.55225,0-1,0.44775-1,1v3c0,2.62598,4.52734,4,9,4s9-1.37402,9-4v-3
	C40,17.44775,39.55225,17,39,17z"/>
<path fill="#EFD358" d="M31,14c-4.47266,0-9,1.37402-9,4s4.52734,4,9,4s9-1.37402,9-4S35.47266,14,31,14z"/>
<path fill="#D8BC48" d="M39,12H23c-0.55225,0-1,0.44775-1,1v3c0,2.62598,4.52734,4,9,4s9-1.37402,9-4v-3
	C40,12.44775,39.55225,12,39,12z"/>
<path fill="#EFD358" d="M31,9c-4.47266,0-9,1.37402-9,4s4.52734,4,9,4s9-1.37402,9-4S35.47266,9,31,9z"/>
</g>
</symbol>
<symbol id="business-color_contacts" viewBox="0 0 48 48"><g>
<path fill="#A67C52" d="M36,1H8v46h28c2.76143,0,5-2.23857,5-5V6C41,3.23858,38.76143,1,36,1z"/>
<path fill="#444444" d="M9,1H5C3.89543,1,3,1.89543,3,3v42c0,1.10457,0.89543,2,2,2h4V1z"/>
<rect x="18" y="10" fill="#FFFFFF" width="14" height="8"/>
<path fill="#FFFFFF" d="M32,19H18c-0.55273,0-1-0.44727-1-1v-8c0-0.55273,0.44727-1,1-1h14c0.55273,0,1,0.44727,1,1v8
	C33,18.55273,32.55273,19,32,19z M19,17h12v-6H19V17z"/>
<path fill="#EFD358" d="M44,16h-3V8h3c0.55228,0,1,0.44771,1,1v6C45,15.55229,44.55228,16,44,16z"/>
<path fill="#43A6DD" d="M44,26h-3v-8h3c0.55228,0,1,0.44772,1,1v6C45,25.55228,44.55228,26,44,26z"/>
</g>
</symbol>
<symbol id="business-color_factory" viewBox="0 0 48 48"><g>
<path fill="#444444" d="M46.45801,15.11035c-0.33398-0.17188-0.73535-0.14258-1.03906,0.07617L33,24.05664V16
	c0-0.36328-0.19727-0.69824-0.51562-0.875c-0.31641-0.1748-0.70605-0.16699-1.01465,0.02734L16.33398,24.6123l-5.47656-9.12695
	C10.67676,15.18457,10.35156,15,10,15H2c-0.55273,0-1,0.44727-1,1v30c0,0.55273,0.44727,1,1,1h44c0.55273,0,1-0.44727,1-1V16
	C47,15.625,46.79102,15.28223,46.45801,15.11035z"/>
<path fill="#BADEFC" d="M40,33h-6c-0.55273,0-1,0.44727-1,1v6c0,0.55273,0.44727,1,1,1h6c0.55273,0,1-0.44727,1-1v-6
	C41,33.44727,40.55273,33,40,33z"/>
<path fill="#BADEFC" d="M28,33h-6c-0.55273,0-1,0.44727-1,1v6c0,0.55273,0.44727,1,1,1h6c0.55273,0,1-0.44727,1-1v-6
	C29,33.44727,28.55273,33,28,33z"/>
<path fill="#B3B3B3" d="M22,2.95801c-1.74414,0-3.41895,0.66602-4.69727,1.8291C15.62891,2.4209,12.94043,1,10,1
	c-4.96289,0-9,4.03711-9,9c0,0.55273,0.44727,1,1,1h25.99609c0.52637,0,0.95703-0.40625,0.99707-0.92188
	C28.99707,10.03809,29,9.99219,29,9.95801C29,6.09863,25.85938,2.95801,22,2.95801z"/>
</g>
</symbol>
<symbol id="business-color_goal-64" viewBox="0 0 48 48"><g>
<path fill="#C19F85" d="M46.97314,9.77051c-0.07959-0.33789-0.32812-0.60938-0.65674-0.71875L40.79083,7.2099l-1.8421-5.52631
	c-0.10986-0.3291-0.38184-0.57715-0.71875-0.65723c-0.33838-0.07812-0.69238,0.02148-0.93701,0.2666l-6,6
	c-0.26807,0.26758-0.36133,0.66406-0.2417,1.02344l2,6c0.09035,0.27046,0.35134,0.53841,0.63232,0.63184l6,2
	C39.7876,16.9834,39.89404,17,40,17c0.26074,0,0.5166-0.10254,0.70703-0.29297l6-6
	C46.95215,10.46191,47.05273,10.10742,46.97314,9.77051z"/>
<circle fill="#E6E6E6" cx="19" cy="29" r="16"/>
<path fill="#E86C60" d="M19,48C8.52344,48,0,39.47656,0,29s8.52344-19,19-19s19,8.52344,19,19S29.47656,48,19,48z M19,14
	c-8.271,0-15,6.72852-15,15s6.729,15,15,15s15-6.72852,15-15S27.271,14,19,14z"/>
<path fill="#E86C60" d="M19,41c-6.6167,0-12-5.38281-12-12s5.3833-12,12-12s12,5.38281,12,12S25.6167,41,19,41z M19,21
	c-4.41113,0-8,3.58887-8,8s3.58887,8,8,8s8-3.58887,8-8S23.41113,21,19,21z"/>
<circle fill="#E86C60" cx="19" cy="29" r="4"/>
<path fill="#87613E" d="M19,30c-0.25586,0-0.51172-0.09766-0.70703-0.29297c-0.39062-0.39062-0.39062-1.02344,0-1.41406l25-25
	c0.39062-0.39062,1.02344-0.39062,1.41406,0s0.39062,1.02344,0,1.41406l-25,25C19.51172,29.90234,19.25586,30,19,30z"/>
</g>
</symbol>
<symbol id="business-color_gold" viewBox="0 0 48 48"><g>
<path fill="#B29930" d="M8,25H2c-0.55225,0-1-0.44727-1-1s0.44775-1,1-1h6c0.55225,0,1,0.44727,1,1S8.55225,25,8,25z"/>
<path fill="#B29930" d="M12.68652,13.68652c-0.25586,0-0.51172-0.09766-0.70703-0.29297L7.73682,9.15039
	c-0.39062-0.39062-0.39062-1.02344,0-1.41406s1.02344-0.39062,1.41406,0l4.24268,4.24316c0.39062,0.39062,0.39062,1.02344,0,1.41406
	C13.19824,13.58887,12.94238,13.68652,12.68652,13.68652z"/>
<path fill="#B29930" d="M24,9c-0.55225,0-1-0.44727-1-1V2c0-0.55273,0.44775-1,1-1s1,0.44727,1,1v6C25,8.55273,24.55225,9,24,9z"/>
<path fill="#B29930" d="M35.31348,13.68652c-0.25586,0-0.51172-0.09766-0.70703-0.29297c-0.39062-0.39062-0.39062-1.02344,0-1.41406
	l4.24268-4.24316c0.39062-0.39062,1.02344-0.39062,1.41406,0s0.39062,1.02344,0,1.41406l-4.24268,4.24316
	C35.8252,13.58887,35.56934,13.68652,35.31348,13.68652z"/>
<path fill="#B29930" d="M46,25h-6c-0.55225,0-1-0.44727-1-1s0.44775-1,1-1h6c0.55225,0,1,0.44727,1,1S46.55225,25,46,25z"/>
<path fill="#EFD358" d="M30.94873,15.68359C30.8125,15.27539,30.43066,15,30,15H18c-0.43066,0-0.8125,0.27539-0.94873,0.68359
	L13.27911,27h21.44177L30.94873,15.68359z"/>
<path fill="#B29930" d="M34.81104,28.58496c0.18799-0.26074,0.23926-0.59668,0.1377-0.90137L34.72089,27H13.27911l-0.22784,0.68359
	c-0.10156,0.30469-0.05029,0.64062,0.1377,0.90137S13.67871,29,14,29h20C34.32129,29,34.62305,28.8457,34.81104,28.58496z"/>
<path fill="#EFD358" d="M40.94873,29.68359C40.8125,29.27539,40.43066,29,40,29H28c-0.43066,0-0.8125,0.27539-0.94873,0.68359
	L24,38.8374l-3.05127-9.15381C20.8125,29.27539,20.43066,29,20,29H8c-0.43066,0-0.8125,0.27539-0.94873,0.68359L3.27911,41h41.44177
	L40.94873,29.68359z"/>
<path fill="#B29930" d="M3.18896,42.58496C3.37695,42.8457,3.67871,43,4,43h20h20c0.32129,0,0.62305-0.1543,0.81104-0.41504
	s0.23926-0.59668,0.1377-0.90137L44.72089,41H3.27911l-0.22784,0.68359C2.94971,41.98828,3.00098,42.32422,3.18896,42.58496z"/>
</g>
</symbol>
<symbol id="business-color_hammer" viewBox="0 0 48 48"><g>
<path fill="#636363" d="M18,29H4c-0.30273,0-0.58887,0.13672-0.7793,0.37305c-0.18945,0.23535-0.2627,0.54492-0.19727,0.84082
	C3.10156,30.57227,5.09375,39,18,39c0.55273,0,1-0.44727,1-1v-8C19,29.44727,18.55273,29,18,29z"/>
<path fill="#A67C52" d="M43.70703,19.29297l-9-9c-0.39062-0.39062-1.02344-0.39062-1.41406,0l-4,4
	c-0.39062,0.39062-0.39062,1.02344,0,1.41406l9,9C38.48828,24.90234,38.74414,25,39,25s0.51172-0.09766,0.70703-0.29297l4-4
	C44.09766,20.31641,44.09766,19.68359,43.70703,19.29297z"/>
<path fill="#444444" d="M46,29H17v17c0,0.55228,0.44772,1,1,1h22c0.56559,0,0.99647-0.46718,1.00011-1.03275
	c0.0176-2.73092,2.23621-4.94953,4.96713-4.96713C46.53282,40.99647,47,40.56559,47,40V30C47,29.44772,46.55228,29,46,29z"/>
<path fill="#444444" d="M38.70703,6.29297l-4-4c-0.39062-0.39062-1.02344-0.39062-1.41406,0l-12,12
	c-0.39062,0.39062-0.39062,1.02344,0,1.41406l4,4C25.48828,19.90234,25.74414,20,26,20s0.51172-0.09766,0.70703-0.29297l12-12
	C39.09766,7.31641,39.09766,6.68359,38.70703,6.29297z"/>
<path fill="#E86C60" d="M14,25h-4c-0.55273,0-1-0.44727-1-1s0.44727-1,1-1h4c0.55273,0,1,0.44727,1,1S14.55273,25,14,25z"/>
<path fill="#E86C60" d="M16.34277,19.34277c-0.25586,0-0.51172-0.09766-0.70703-0.29297l-2.82812-2.82812
	c-0.39062-0.39062-0.39062-1.02344,0-1.41406s1.02344-0.39062,1.41406,0l2.82812,2.82812c0.39062,0.39062,0.39062,1.02344,0,1.41406
	C16.85449,19.24512,16.59863,19.34277,16.34277,19.34277z"/>
</g>
</symbol>
<symbol id="business-color_handout" viewBox="0 0 48 48"><g>
<circle fill="#EFD358" cx="33" cy="17" r="6"/>
<circle fill="#EFD358" cx="19" cy="7" r="6"/>
<path fill="#B29930" d="M21,8h-4c-0.55273,0-1-0.44727-1-1s0.44727-1,1-1h4c0.55273,0,1,0.44727,1,1S21.55273,8,21,8z"/>
<path fill="#B29930" d="M35,18h-4c-0.55273,0-1-0.44727-1-1s0.44727-1,1-1h4c0.55273,0,1,0.44727,1,1S35.55273,18,35,18z"/>
<path fill="#EAD8C5" d="M44.01177,35.25985L26.4911,36.78338c-1.62204,0.14105-3.24851-0.21619-4.66215-1.02398L17,33h11.26765
	C29.77669,33,31,31.77669,31,30.26765v-0.00001c0-1.31485-0.93648-2.44324-2.22881-2.68555l-10.11726-1.89699
	C16.22322,25.22935,13.75547,25,11.28239,25H3v14.479l16.44922,6.85742c1.8208,0.68256,3.83527,0.67297,5.68848,0.20508L47,38
	v-0.00049C47,36.38671,45.6185,35.12013,44.01177,35.25985z"/>
<path fill="#5A7A84" d="M7,44H2c-0.55228,0-1-0.44772-1-1V24c0-0.55228,0.44772-1,1-1h5c0.55228,0,1,0.44772,1,1v19
	C8,43.55228,7.55228,44,7,44z"/>
</g>
</symbol>
<symbol id="business-color_hat" viewBox="0 0 48 48"><g>
<path fill="#444444" d="M24,7C15.729,7,9,13.729,9,22v18c0,0.55225,0.44775,1,1,1h28c0.55225,0,1-0.44775,1-1V22
	C39,13.729,32.271,7,24,7z"/>
<path fill="#565656" d="M38,41H10c-4.9624,0-9-4.0376-9-9c0-0.55225,0.44775-1,1-1s1,0.44775,1,1c0,3.85986,3.14014,7,7,7h28
	c3.85986,0,7-3.14014,7-7c0-0.55225,0.44775-1,1-1s1,0.44775,1,1C47,36.9624,42.9624,41,38,41z"/>
<rect x="9" y="29" fill="#B3B3B3" width="30" height="10"/>
</g>
</symbol>
<symbol id="business-color_hierarchy-53" viewBox="0 0 48 48"><g>
<path fill="#335262" d="M40,23H25v-5c0-0.55273-0.44775-1-1-1s-1,0.44727-1,1v5H8c-0.55225,0-1,0.44727-1,1v6
	c0,0.55273,0.44775,1,1,1s1-0.44727,1-1v-5h14v5c0,0.55273,0.44775,1,1,1s1-0.44727,1-1v-5h14v5c0,0.55273,0.44775,1,1,1
	s1-0.44727,1-1v-6C41,23.44727,40.55225,23,40,23z"/>
<path fill="#E86C60" d="M28,35h-8c-0.55225,0-1,0.44727-1,1v8c0,0.55273,0.44775,1,1,1h8c0.55225,0,1-0.44727,1-1v-8
	C29,35.44727,28.55225,35,28,35z"/>
<path fill="#E86C60" d="M28,3h-8c-0.55225,0-1,0.44727-1,1v8c0,0.55273,0.44775,1,1,1h8c0.55225,0,1-0.44727,1-1V4
	C29,3.44727,28.55225,3,28,3z"/>
<path fill="#E86C60" d="M44,35h-8c-0.55225,0-1,0.44727-1,1v8c0,0.55273,0.44775,1,1,1h8c0.55225,0,1-0.44727,1-1v-8
	C45,35.44727,44.55225,35,44,35z"/>
<path fill="#E86C60" d="M12,35H4c-0.55225,0-1,0.44727-1,1v8c0,0.55273,0.44775,1,1,1h8c0.55225,0,1-0.44727,1-1v-8
	C13,35.44727,12.55225,35,12,35z"/>
</g>
</symbol>
<symbol id="business-color_hierarchy-55" viewBox="0 0 48 48"><g>
<path fill="#335262" d="M40,23H25v-5c0-0.55273-0.44775-1-1-1s-1,0.44727-1,1v5H8c-0.55225,0-1,0.44727-1,1v6
	c0,0.55273,0.44775,1,1,1s1-0.44727,1-1v-5h14v5c0,0.55273,0.44775,1,1,1s1-0.44727,1-1v-5h14v5c0,0.55273,0.44775,1,1,1
	s1-0.44727,1-1v-6C41,23.44727,40.55225,23,40,23z"/>
<circle fill="#43A6DD" cx="24" cy="8" r="5"/>
<circle fill="#43A6DD" cx="8" cy="40" r="5"/>
<circle fill="#43A6DD" cx="24" cy="40" r="5"/>
<circle fill="#43A6DD" cx="40" cy="40" r="5"/>
</g>
</symbol>
<symbol id="business-color_laptop-71" viewBox="0 0 48 48"><g>
<path fill="#444444" d="M40,8H8c-1.6543,0-3,1.34571-3,3v24c0,0.5522,0.4473,1,1,1h36c0.5527,0,1-0.4478,1-1V11
	C43,9.34571,41.6543,8,40,8z"/>
<path fill="#E6E6E6" d="M1,33v2c0,2.75681,2.2432,5,5,5h36c2.7568,0,5-2.24319,5-5v-2H1z"/>
<rect x="8" y="11" fill="#FFFFFF" width="32" height="19"/>
<path fill="#B3B3B3" d="M27,36h-6c-1.1045,0-2-0.8955-2-2v-1h10v1C29,35.1045,28.1045,36,27,36z"/>
<path fill="#72C472" d="M34.92291,15.61792c-0.10138-0.24475-0.29626-0.43958-0.54102-0.54089C34.25977,15.02649,34.13013,15,34,15
	h-6c-0.55225,0-1,0.44727-1,1s0.44775,1,1,1h3.58594L24,24.58594l-5.29297-5.29297c-0.39062-0.39062-1.02344-0.39062-1.41406,0l-4,4
	c-0.39062,0.39062-0.39062,1.02344,0,1.41406s1.02344,0.39062,1.41406,0L18,21.41406l5.29297,5.29297
	C23.48828,26.90234,23.74414,27,24,27s0.51172-0.09766,0.70703-0.29297L33,18.41406V22c0,0.55273,0.44775,1,1,1s1-0.44727,1-1v-6
	C35,15.86981,34.97345,15.74011,34.92291,15.61792z"/>
</g>
</symbol>
<symbol id="business-color_law" viewBox="0 0 48 48"><g>
<path fill="#A67C52" d="M45.70703,26.29297l-11-11c-0.39062-0.39062-1.02344-0.39062-1.41406,0l-4,4
	c-0.39062,0.39062-0.39062,1.02344,0,1.41406l11,11C40.48828,31.90234,40.74414,32,41,32s0.51172-0.09766,0.70703-0.29297l4-4
	C46.09766,27.31641,46.09766,26.68359,45.70703,26.29297z"/>
<path fill="#C19F85" d="M40.70703,9.29297l-6-6c-0.39062-0.39062-1.02344-0.39062-1.41406,0l-16,16
	c-0.39062,0.39062-0.39062,1.02344,0,1.41406l6,6C23.48828,26.90234,23.74414,27,24,27s0.51172-0.09766,0.70703-0.29297l16-16
	C41.09766,10.31641,41.09766,9.68359,40.70703,9.29297z"/>
<path fill="#A67C52" d="M28,39H6c-0.55225,0-1,0.44727-1,1v6c0,0.55273,0.44775,1,1,1h22c0.55225,0,1-0.44727,1-1v-6
	C29,39.44727,28.55225,39,28,39z"/>
<path fill="#B3B3B3" d="M10,33H4c-0.55225,0-1-0.44727-1-1s0.44775-1,1-1h6c0.55225,0,1,0.44727,1,1S10.55225,33,10,33z"/>
<path fill="#B3B3B3" d="M12.92871,25.92871c-0.25586,0-0.51172-0.09766-0.70703-0.29297l-4.24219-4.24219
	c-0.39062-0.39062-0.39062-1.02344,0-1.41406s1.02344-0.39062,1.41406,0l4.24219,4.24219c0.39062,0.39062,0.39062,1.02344,0,1.41406
	C13.44043,25.83105,13.18457,25.92871,12.92871,25.92871z"/>
<path fill="#87613E" d="M32,47H2c-0.55225,0-1-0.44727-1-1s0.44775-1,1-1h30c0.55225,0,1,0.44727,1,1S32.55225,47,32,47z"/>
</g>
</symbol>
<symbol id="business-color_math" viewBox="0 0 48 48"><g>
<path fill="#EA9860" d="M45,1H3C1.89543,1,1,1.89543,1,3v42c0,1.10457,0.89543,2,2,2h42c1.10457,0,2-0.89543,2-2V3
	C47,1.89543,46.10457,1,45,1z"/>
<path fill="#FFFFFF" d="M19,12h-5V7c0-0.55273-0.44727-1-1-1s-1,0.44727-1,1v5H7c-0.55273,0-1,0.44727-1,1s0.44727,1,1,1h5v5
	c0,0.55273,0.44727,1,1,1s1-0.44727,1-1v-5h5c0.55273,0,1-0.44727,1-1S19.55273,12,19,12z"/>
<path fill="#FFFFFF" d="M19.70703,28.29297c-0.39062-0.39062-1.02344-0.39062-1.41406,0L13,33.58594l-5.29297-5.29297
	c-0.39062-0.39062-1.02344-0.39062-1.41406,0s-0.39062,1.02344,0,1.41406L11.58594,35l-5.29297,5.29297
	c-0.39062,0.39062-0.39062,1.02344,0,1.41406C6.48828,41.90234,6.74414,42,7,42s0.51172-0.09766,0.70703-0.29297L13,36.41406
	l5.29297,5.29297C18.48828,41.90234,18.74414,42,19,42s0.51172-0.09766,0.70703-0.29297c0.39062-0.39062,0.39062-1.02344,0-1.41406
	L14.41406,35l5.29297-5.29297C20.09766,29.31641,20.09766,28.68359,19.70703,28.29297z"/>
<path fill="#FFFFFF" d="M29,14h12c0.55273,0,1-0.44727,1-1s-0.44727-1-1-1H29c-0.55273,0-1,0.44727-1,1S28.44727,14,29,14z"/>
<path fill="#FFFFFF" d="M41,30H29c-0.55273,0-1,0.44727-1,1s0.44727,1,1,1h12c0.55273,0,1-0.44727,1-1S41.55273,30,41,30z"/>
<path fill="#FFFFFF" d="M41,38H29c-0.55273,0-1,0.44727-1,1s0.44727,1,1,1h12c0.55273,0,1-0.44727,1-1S41.55273,38,41,38z"/>
</g>
</symbol>
<symbol id="business-color_money-13" viewBox="0 0 48 48"><g>
<path fill="#307730" d="M40,22H8c-0.55228,0-1-0.44772-1-1V6c0-0.55228,0.44772-1,1-1h32c0.55228,0,1,0.44772,1,1v15
	C41,21.55228,40.55228,22,40,22z"/>
<path fill="#3F8E3F" d="M43,22H5c-0.55228,0-1-0.44772-1-1V10c0-0.55229,0.44772-1,1-1h38c0.55228,0,1,0.44771,1,1v11
	C44,21.55228,43.55228,22,43,22z"/>
<path fill="#4DA34D" d="M46,43H2c-0.55225,0-1-0.44775-1-1V14c0-0.55225,0.44775-1,1-1h44c0.55225,0,1,0.44775,1,1v28
	C47,42.55225,46.55225,43,46,43z"/>
<path fill="#9EDB9E" d="M38,16H10c0,3.31372-2.68628,6-6,6v12c3.31372,0,6,2.68628,6,6h28c0-3.31372,2.68628-6,6-6V22
	C40.68628,22,38,19.31372,38,16z"/>
<circle fill="#4DA34D" cx="24" cy="28" r="7"/>
</g>
</symbol>
<symbol id="business-color_money-bag" viewBox="0 0 48 48"><g>
<path fill="#A67C52" d="M39.88086,33.95508c-0.00146-0.00391-0.00342-0.0083-0.00537-0.01221L31,14l3.94873-11.68359
	c0.10156-0.30518,0.05029-0.64014-0.1377-0.90088C34.62305,1.1543,34.32129,1,34,1H14c-0.32129,0-0.62305,0.1543-0.81104,0.41553
	c-0.18799,0.26074-0.23926,0.5957-0.1377,0.90088L17,14L8.11914,33.95508c-1.23291,2.90527-0.92871,6.21094,0.81348,8.84229
	C10.6748,45.4292,13.59912,47,16.75488,47h14.49023c3.15576,0,6.08008-1.5708,7.82227-4.20264
	C40.80957,40.16602,41.11377,36.86035,39.88086,33.95508z"/>
<path fill="#87613E" d="M24,15c-0.55225,0-1-0.44775-1-1V8c0-0.55225,0.44775-1,1-1s1,0.44775,1,1v6C25,14.55225,24.55225,15,24,15z
	"/>
<path fill="#EFD358" d="M24.24268,30.02979c-1.81316-0.45304-2.28446-0.70982-2.23984-1.64349
	c0.03738-0.78224,0.71404-1.38629,1.49717-1.38629l1,0c0.84209,0,1.47249,0.69234,1.50057,1.53396
	C26.01848,29.07049,26.45912,29.5,27,29.5c0.55225,0,1-0.44775,1-1c0-1.75848-1.30835-3.20422-3-3.44946V23c0-0.55228-0.44771-1-1-1
	h0c-0.55228,0-1,0.44771-1,1v2.05054c-1.69165,0.24524-3,1.69098-3,3.44946c0,2.53076,2.26123,3.09619,3.75732,3.47021
	c1.81316,0.45304,2.28446,0.70982,2.23984,1.64349C25.95979,34.39594,25.28313,34.99999,24.5,35h-1
	c-0.84209,0-1.47249-0.69234-1.50057-1.53397C21.98152,32.92951,21.54088,32.5,21,32.5c-0.55225,0-1,0.44775-1,1
	c0,1.75848,1.30835,3.20422,3,3.44946V39c0,0.55228,0.44771,1,1,1h0c0.55228,0,1-0.44772,1-1v-2.05054
	c1.69165-0.24524,3-1.69098,3-3.44946C28,30.96924,25.73877,30.40381,24.24268,30.02979z"/>
<path fill="#EFD358" d="M31,15H17c-0.55225,0-1-0.44775-1-1s0.44775-1,1-1h14c0.55225,0,1,0.44775,1,1S31.55225,15,31,15z"/>
</g>
</symbol>
<symbol id="business-color_money-coins" viewBox="0 0 48 48"><g>
<path fill="#4DA34D" d="M46,33H2c-0.55225,0-1-0.44775-1-1V4c0-0.55225,0.44775-1,1-1h44c0.55225,0,1,0.44775,1,1v28
	C47,32.55225,46.55225,33,46,33z"/>
<path fill="#9EDB9E" d="M38,6H10c0,3.31372-2.68628,6-6,6v12c3.31372,0,6,2.68628,6,6h28c0-3.31372,2.68628-6,6-6V12
	C40.68628,12,38,9.31372,38,6z"/>
<circle fill="#4DA34D" cx="24" cy="18" r="7"/>
<path opacity="0.1" d="M25,33h18v-2c0-0.35736-0.09039-0.68933-0.24652-1C42.90961,29.68933,43,29.35736,43,29v-3
	c0-0.35736-0.09039-0.68933-0.24652-1C42.90961,24.68933,43,24.35736,43,24v-3c0-0.35736-0.09039-0.68933-0.24652-1
	C42.90961,19.68933,43,19.35736,43,19v-3c0-0.35736-0.09039-0.68933-0.24652-1C42.90961,14.68933,43,14.35736,43,14v-3
	c0-2.62598-4.52734-4-9-4s-9,1.37402-9,4v3c0,0.35736,0.09039,0.68933,0.24652,1C25.09039,15.31067,25,15.64264,25,16v3
	c0,0.35736,0.09039,0.68933,0.24652,1C25.09039,20.31067,25,20.64264,25,21v3c0,0.35736,0.09039,0.68933,0.24652,1
	C25.09039,25.31067,25,25.64264,25,26v3c0,0.35736,0.09039,0.68933,0.24652,1C25.09039,30.31067,25,30.64264,25,31V33z"/>
<path fill="#D8BC48" d="M44,37H28c-0.55225,0-1,0.44775-1,1v3c0,2.62598,4.52734,4,9,4s9-1.37402,9-4v-3
	C45,37.44775,44.55225,37,44,37z"/>
<path fill="#EFD358" d="M36,34c-4.47266,0-9,1.37402-9,4s4.52734,4,9,4s9-1.37402,9-4S40.47266,34,36,34z"/>
<path fill="#D8BC48" d="M44,32H28c-0.55225,0-1,0.44775-1,1v3c0,2.62598,4.52734,4,9,4s9-1.37402,9-4v-3
	C45,32.44775,44.55225,32,44,32z"/>
<path fill="#EFD358" d="M36,29c-4.47266,0-9,1.37402-9,4s4.52734,4,9,4s9-1.37402,9-4S40.47266,29,36,29z"/>
<path fill="#D8BC48" d="M44,27H28c-0.55225,0-1,0.44775-1,1v3c0,2.62598,4.52734,4,9,4s9-1.37402,9-4v-3
	C45,27.44775,44.55225,27,44,27z"/>
<path fill="#EFD358" d="M36,24c-4.47266,0-9,1.37402-9,4s4.52734,4,9,4s9-1.37402,9-4S40.47266,24,36,24z"/>
<path fill="#D8BC48" d="M44,22H28c-0.55225,0-1,0.44775-1,1v3c0,2.62598,4.52734,4,9,4s9-1.37402,9-4v-3
	C45,22.44775,44.55225,22,44,22z"/>
<path fill="#EFD358" d="M36,19c-4.47266,0-9,1.37402-9,4s4.52734,4,9,4s9-1.37402,9-4S40.47266,19,36,19z"/>
<path fill="#D8BC48" d="M44,17H28c-0.55225,0-1,0.44775-1,1v3c0,2.62598,4.52734,4,9,4s9-1.37402,9-4v-3
	C45,17.44775,44.55225,17,44,17z"/>
<path fill="#EFD358" d="M36,14c-4.47266,0-9,1.37402-9,4s4.52734,4,9,4s9-1.37402,9-4S40.47266,14,36,14z"/>
<path fill="#D8BC48" d="M44,12H28c-0.55225,0-1,0.44775-1,1v3c0,2.62598,4.52734,4,9,4s9-1.37402,9-4v-3
	C45,12.44775,44.55225,12,44,12z"/>
<path fill="#EFD358" d="M36,9c-4.47266,0-9,1.37402-9,4s4.52734,4,9,4s9-1.37402,9-4S40.47266,9,36,9z"/>
</g>
</symbol>
<symbol id="business-color_money-growth" viewBox="0 0 48 48"><g>
<path fill="#72C472" d="M32,33c-3.01385,0-5.63599,1.66821-7,4.13007V43c4.41827,0,8-3.58173,8-8v-2H32z"/>
<path fill="#A67C52" d="M25,26c0-0.55225-0.44727-1-1-1s-1,0.44775-1,1v20c0,0.55225,0.44727,1,1,1s1-0.44775,1-1v-3v-5.86993V26z"/>
<path fill="#4DA34D" d="M46,27H2c-0.55225,0-1-0.44775-1-1V2c0-0.55225,0.44775-1,1-1h44c0.55225,0,1,0.44775,1,1v24
	C47,26.55225,46.55225,27,46,27z"/>
<path fill="#9EDB9E" d="M38,4H10c0,3.31372-2.68628,6-6,6v8c3.31372,0,6,2.68628,6,6h28c0-3.31372,2.68628-6,6-6v-8
	C40.68628,10,38,7.31372,38,4z"/>
<circle fill="#4DA34D" cx="24" cy="14" r="5"/>
</g>
</symbol>
<symbol id="business-color_money-time" viewBox="0 0 48 48"><g>
<circle fill="#FFFFFF" cx="21" cy="21" r="18"/>
<path fill="#43A6DD" d="M21,41C9.97217,41,1,32.02783,1,21S9.97217,1,21,1s20,8.97217,20,20S32.02783,41,21,41z M21,5
	C12.17773,5,5,12.17773,5,21s7.17773,16,16,16s16-7.17773,16-16S29.82227,5,21,5z"/>
<path fill="#E86C60" d="M14,29c-0.25586,0-0.51172-0.09766-0.70703-0.29297c-0.39062-0.39062-0.39062-1.02344,0-1.41406l7-7
	c0.39062-0.39062,1.02344-0.39062,1.41406,0s0.39062,1.02344,0,1.41406l-7,7C14.51172,28.90234,14.25586,29,14,29z"/>
<path fill="#223E49" d="M21,22c-0.55273,0-1-0.44775-1-1V11c0-0.55225,0.44727-1,1-1s1,0.44775,1,1v10
	C22,21.55225,21.55273,22,21,22z"/>
<path fill="#223E49" d="M31,22H21c-0.55273,0-1-0.44775-1-1s0.44727-1,1-1h10c0.55273,0,1,0.44775,1,1S31.55273,22,31,22z"/>
<circle fill="#223E49" cx="21" cy="21" r="3"/>
<path opacity="0.1" d="M41,21c0-2.3313-0.42169-4.56091-1.15826-6.64313C38.63318,14.12219,37.31573,14,36,14
	c-4.47266,0-9,1.37402-9,4v3c0,0.35736,0.09039,0.68933,0.24652,1C27.09039,22.31067,27,22.64264,27,23v3
	c0,0.35736,0.09039,0.68933,0.24652,1C27.09039,27.31067,27,27.64264,27,28v3c0,0.35736,0.09039,0.68933,0.24652,1
	C27.09039,32.31067,27,32.64264,27,33v3c0,0.35736,0.09039,0.68933,0.24652,1C27.09039,37.31067,27,37.64264,27,38v2h0.21155
	C35.20544,37.37946,41,29.85852,41,21z"/>
<path fill="#D8BC48" d="M46,39H30c-0.55225,0-1,0.44775-1,1v3c0,2.62598,4.52734,4,9,4s9-1.37402,9-4v-3
	C47,39.44775,46.55225,39,46,39z"/>
<path fill="#EFD358" d="M38,36c-4.47266,0-9,1.37402-9,4s4.52734,4,9,4s9-1.37402,9-4S42.47266,36,38,36z"/>
<path fill="#D8BC48" d="M46,34H30c-0.55225,0-1,0.44775-1,1v3c0,2.62598,4.52734,4,9,4s9-1.37402,9-4v-3
	C47,34.44775,46.55225,34,46,34z"/>
<path fill="#EFD358" d="M38,31c-4.47266,0-9,1.37402-9,4s4.52734,4,9,4s9-1.37402,9-4S42.47266,31,38,31z"/>
<path fill="#D8BC48" d="M46,29H30c-0.55225,0-1,0.44775-1,1v3c0,2.62598,4.52734,4,9,4s9-1.37402,9-4v-3
	C47,29.44775,46.55225,29,46,29z"/>
<path fill="#EFD358" d="M38,26c-4.47266,0-9,1.37402-9,4s4.52734,4,9,4s9-1.37402,9-4S42.47266,26,38,26z"/>
<path fill="#D8BC48" d="M46,24H30c-0.55225,0-1,0.44775-1,1v3c0,2.62598,4.52734,4,9,4s9-1.37402,9-4v-3
	C47,24.44775,46.55225,24,46,24z"/>
<path fill="#EFD358" d="M38,21c-4.47266,0-9,1.37402-9,4s4.52734,4,9,4s9-1.37402,9-4S42.47266,21,38,21z"/>
<path fill="#D8BC48" d="M46,19H30c-0.55225,0-1,0.44775-1,1v3c0,2.62598,4.52734,4,9,4s9-1.37402,9-4v-3
	C47,19.44775,46.55225,19,46,19z"/>
<path fill="#EFD358" d="M38,16c-4.47266,0-9,1.37402-9,4s4.52734,4,9,4s9-1.37402,9-4S42.47266,16,38,16z"/>
</g>
</symbol>
<symbol id="business-color_net" viewBox="0 0 48 48"><g>
<path fill="#444444" d="M46,23h-1.80524c-1.83203-0.95929-8.97919-12.81702-9.2168-15.22876l1.25836-2.08179
	c0.28613-0.47266,0.13477-1.08789-0.33789-1.37305c-0.47461-0.28613-1.08887-0.13379-1.37305,0.33789L33.396,6.52271
	C31.93105,7.78158,16.0514,7.76622,14.60431,6.52325l-1.1297-1.86896c-0.28516-0.47168-0.89844-0.62402-1.37305-0.33789
	c-0.47266,0.28516-0.62402,0.90039-0.33789,1.37305l1.25836,2.08179C12.78442,10.18298,5.63727,22.04071,3.80524,23H2
	c-0.55273,0-1,0.44727-1,1s0.44727,1,1,1h1.80524c1.83203,0.95929,8.97919,12.81702,9.2168,15.22876l-1.25836,2.08179
	c-0.28613,0.47266-0.13477,1.08789,0.33789,1.37305c0.47555,0.28648,1.08843,0.1335,1.37305-0.33789l1.12994-1.86926
	c1.48273-1.2712,17.43688-1.21769,18.78003-0.01807l1.14081,1.88733c0.28461,0.47139,0.8975,0.62437,1.37305,0.33789
	c0.47266-0.28516,0.62402-0.90039,0.33789-1.37305l-1.25836-2.08179C35.21558,37.81702,42.36273,25.95929,44.19476,25H46
	c0.55273,0,1-0.44727,1-1S46.55273,23,46,23z M41.41486,23h-5.18591c-1.18286-0.81079-5.02722-6.67535-5.45105-8.28033
	l2.8363-4.6922C34.9329,13.30482,38.83438,19.98268,41.41486,23z M29.51569,31.1922L25.77277,25h7.74646
	C32.16886,26.65198,30.4144,29.425,29.51569,31.1922z M14.48077,25h7.74646l-3.74292,6.19214
	C17.5805,29.41491,15.82539,26.64495,14.48077,25z M18.48431,16.80786L22.22723,23h-7.74646
	C15.83133,21.34768,17.58627,18.57375,18.48431,16.80786z M20.27319,15.90167c1.97552,0.20194,5.43827,0.20601,7.45361,0
	L24,22.06714L20.27319,15.90167z M24,25.93286l3.72681,6.16547c-1.97552-0.20194-5.43827-0.20601-7.45361,0L24,25.93286z
	 M25.77277,23l3.74292-6.1922c0.16333,0.32117,0.3504,0.67108,0.57611,1.06915c0.10596,0.18707,1.75922,3.08209,3.42743,5.12305
	H25.77277z M31.88977,9.01459l-2.78973,4.61523c-0.00818,0.00745-0.01886,0.01086-0.02679,0.01862
	c-1.32227,0.55078-8.82422,0.55078-10.14648,0c-0.00793-0.00775-0.01862-0.01123-0.02679-0.01868l-2.78973-4.61517
	C19.8377,9.6176,28.15934,9.6181,31.88977,9.01459z M14.3858,10.02747l2.8363,4.6922
	C16.79828,16.32465,12.95392,22.18921,11.77106,23H6.58514C9.16143,19.98758,13.06455,13.31117,14.3858,10.02747z M6.58514,25
	h5.18591c1.18286,0.81079,5.02722,6.67535,5.45105,8.28033l-2.8363,4.6922C13.0671,34.69518,9.16562,28.01732,6.58514,25z
	 M16.11029,38.98535l2.78967-4.61517c0.00818-0.00745,0.01886-0.01086,0.02679-0.01862c1.32227-0.55078,8.82422-0.55078,10.14648,0
	c0.00745,0.00726,0.01794,0.00964,0.02563,0.01666l2.79083,4.61713C28.16222,38.38245,19.8403,38.3819,16.11029,38.98535z
	 M33.6142,37.97253l-2.8363-4.6922c0.42383-1.60498,4.26819-7.46954,5.45105-8.28033h5.18591
	C38.83857,28.01242,34.93545,34.68884,33.6142,37.97253z"/>
</g>
</symbol>
<symbol id="business-color_payment" viewBox="0 0 48 48"><g>
<path fill="#F2C7AA" d="M31.80859,29.41113c-0.19824-0.27197-0.50488-0.42383-0.85645-0.41016l-21,1
	C9.41895,30.02637,9,30.46631,9,31c0,8.82227,7.17773,16,16,16c0.41699,0,0.79004-0.25879,0.93652-0.64893l6-16
	C32.05469,30.03613,32.00586,29.68311,31.80859,29.41113z"/>
<path fill="#F2C7AA" d="M8,10V6c0-1.65685,1.34314-3,3-3H11c1.65685,0,3,1.34314,3,3v4"/>
<path fill="#F2C7AA" d="M16,10V5c0-1.65685,1.34314-3,3-3H19c1.65685,0,3,1.34314,3,3v5"/>
<path fill="#F2C7AA" d="M32,10V5c0-1.65685,1.34314-3,3-3H35c1.65685,0,3,1.34314,3,3v5"/>
<path fill="#F2C7AA" d="M24,10V3c0-1.65685,1.34314-3,3-3H27c1.65685,0,3,1.34314,3,3v7"/>
<path fill="#4DA34D" d="M46,34H2c-0.55225,0-1-0.44775-1-1V9c0-0.55225,0.44775-1,1-1h44c0.55225,0,1,0.44775,1,1v24
	C47,33.55225,46.55225,34,46,34z"/>
<path fill="#9EDB9E" d="M38,11H10c0,3.31372-2.68628,6-6,6v8c3.31372,0,6,2.68628,6,6h28c0-3.31372,2.68628-6,6-6v-8
	C40.68628,17,38,14.31372,38,11z"/>
<circle fill="#4DA34D" cx="24" cy="21" r="5"/>
<path opacity="0.1" d="M33,23.95068V30c-3.16504,0-6.32379,1.49603-8.44073,4h14.1488C38.89362,33.02704,39,32.02618,39,31V17.06183
	C34.52344,16.51318,33,19.63281,33,23.95068z"/>
<path fill="#F2C7AA" d="M41,17.06181c-4.47653-0.5486-6,2.571-6,6.88888V30c-5.5,0-11,4.5-11,11l0.00001,4.98149
	c0,0.55046,0.43692,1.01804,0.98738,1.01847C33.81543,47.00684,41,39.82647,41,31L41,17.06181z"/>
</g>
</symbol>
<symbol id="business-color_percentage-39" viewBox="0 0 48 48"><g>
<path fill="#72C472" d="M24,1C11.31738,1,1,11.31787,1,24s10.31738,23,23,23s23-10.31787,23-23S36.68262,1,24,1z"/>
<path fill="#378937" d="M16,33c-0.25586,0-0.51172-0.09766-0.70703-0.29297c-0.39062-0.39062-0.39062-1.02344,0-1.41406l18-18
	c0.39062-0.39062,1.02344-0.39062,1.41406,0s0.39062,1.02344,0,1.41406l-18,18C16.51172,32.90234,16.25586,33,16,33z"/>
<path fill="#378937" d="M34,21c-0.55273,0-1-0.44775-1-1v-5h-5c-0.55273,0-1-0.44775-1-1s0.44727-1,1-1h6c0.55273,0,1,0.44775,1,1v6
	C35,20.55225,34.55273,21,34,21z"/>
<path fill="#378937" d="M17,21c-2.20605,0-4-1.79443-4-4s1.79395-4,4-4s4,1.79443,4,4S19.20605,21,17,21z M17,15
	c-1.10254,0-2,0.89697-2,2s0.89746,2,2,2s2-0.89697,2-2S18.10254,15,17,15z"/>
<path fill="#378937" d="M31,35c-2.20605,0-4-1.79443-4-4s1.79395-4,4-4s4,1.79443,4,4S33.20605,35,31,35z M31,29
	c-1.10254,0-2,0.89697-2,2s0.89746,2,2,2s2-0.89697,2-2S32.10254,29,31,29z"/>
</g>
</symbol>
<symbol id="business-color_pig" viewBox="0 0 48 48"><g>
<path fill="#D39B75" d="M42,31.1123c-0.55225,0-1-0.44727-1-1s0.44775-1,1-1c1.36865,0,3-0.52051,3-3
	c0-1.6377-1.01758-1.97363-1.22168-2.02539c-0.52832-0.13086-0.86475-0.66406-0.74316-1.19531
	c0.12109-0.53125,0.6333-0.87305,1.16895-0.75781C45.17139,22.33496,47,23.42578,47,26.1123C47,29.14941,45.0376,31.1123,42,31.1123
	z"/>
<path fill="#EEBC99" d="M30,17H18.64111c-2.35938-4.74902-6.84814-4.68164-8.97021-3.94434
	c-0.5166,0.17969-0.79248,0.74121-0.61963,1.26074l1.65576,4.96777C8.61182,20.71094,6.97559,22.70312,6.01221,25H2
	c-0.55225,0-1,0.44727-1,1v10c0,0.55273,0.44775,1,1,1h5.0874C8.52539,39.23633,10.5918,40.97852,13,41.98828V46
	c0,0.55273,0.44775,1,1,1h6c0.55225,0,1-0.44727,1-1v-3h6v3c0,0.55273,0.44775,1,1,1h6c0.55225,0,1-0.44727,1-1v-4.01172
	C39.81348,39.98047,43,35.25,43,30C43,22.83203,37.16846,17,30,17z"/>
<path fill="#D39B75" d="M30,23h-8c-0.55225,0-1-0.44727-1-1s0.44775-1,1-1h8c0.55225,0,1,0.44727,1,1S30.55225,23,30,23z"/>
<circle fill="#EFD358" cx="26" cy="6" r="5"/>
<path fill="#444444" d="M14,28c-1.10303,0-2-0.89746-2-2s0.89697-2,2-2s2,0.89746,2,2S15.10303,28,14,28z M14,26.00098h0.01025H14z
	 M14,26.00098h0.01025H14z M14,26.00098h0.01025H14z M14,26.00098h0.01025H14z M14,26.00098h0.01025H14z M14,26h0.01025H14z M14,26
	h0.00977H14z M14,26h0.00977H14z"/>
</g>
</symbol>
<symbol id="business-color_pin" viewBox="0 0 48 48"><g>
<polygon fill="#DB5852" points="10,22 31.99975,10.00014 38,16 26,38 "/>
<path fill="#B3B3B3" d="M6,43c-0.25586,0-0.51172-0.09766-0.70703-0.29297c-0.39062-0.39062-0.39062-1.02344,0-1.41406l12-12
	c0.39062-0.39062,1.02344-0.39062,1.41406,0s0.39062,1.02344,0,1.41406l-12,12C6.51172,42.90234,6.25586,43,6,43z"/>
<path fill="#ED7A74" d="M42,21c-0.25586,0-0.51172-0.09766-0.70703-0.29297l-14-14c-0.39062-0.39062-0.39062-1.02344,0-1.41406
	s1.02344-0.39062,1.41406,0l14,14c0.39062,0.39062,0.39062,1.02344,0,1.41406C42.51172,20.90234,42.25586,21,42,21z"/>
<path fill="#ED7A74" d="M30,43c-0.25586,0-0.51172-0.09766-0.70703-0.29297l-24-24c-0.39062-0.39062-0.39062-1.02344,0-1.41406
	s1.02344-0.39062,1.41406,0l24,24c0.39062,0.39062,0.39062,1.02344,0,1.41406C30.51172,42.90234,30.25586,43,30,43z"/>
</g>
</symbol>
<symbol id="business-color_plug" viewBox="0 0 48 48"><g>
<path fill="#444444" d="M24,47c-0.55273,0-1-0.44727-1-1V36c0-0.55273,0.44727-1,1-1s1,0.44727,1,1v10
	C25,46.55273,24.55273,47,24,47z"/>
<path fill="#B3B3B3" d="M27,37h-6c-0.55228,0-1-0.44772-1-1v-6c0-0.55228,0.44772-1,1-1h6c0.55228,0,1,0.44772,1,1v6
	C28,36.55228,27.55228,37,27,37z"/>
<path fill="#E6E6E6" d="M24.00001,33h-0.00003C16.82029,33,11,27.17971,11,20.00001V11h26v9.00001
	C37,27.17971,31.17971,33,24.00001,33z"/>
<path fill="#B3B3B3" d="M16,1h-1c-0.55273,0-1,0.44727-1,1v10c0,0.55273,0.44727,1,1,1h1c0.55273,0,1-0.44727,1-1V2
	C17,1.44727,16.55273,1,16,1z"/>
<path fill="#B3B3B3" d="M33,1h-1c-0.55273,0-1,0.44727-1,1v10c0,0.55273,0.44727,1,1,1h1c0.55273,0,1-0.44727,1-1V2
	C34,1.44727,33.55273,1,33,1z"/>
<path fill="#444444" d="M40,8H8C7.44727,8,7,8.44727,7,9v3c0,0.55273,0.44727,1,1,1h32c0.55273,0,1-0.44727,1-1V9
	C41,8.44727,40.55273,8,40,8z"/>
</g>
</symbol>
<symbol id="business-color_progress" viewBox="0 0 48 48"><g>
<circle fill="#FFFFFF" cx="22" cy="24" r="20"/>
<path fill="#72C472" d="M42,23c-0.55273,0-1,0.44727-1,1c0,10.47656-8.52344,19-19,19S3,34.47656,3,24S11.52344,5,22,5
	c6.6748,0,12.68903,3.40118,16.13867,8.9834l-4.00586-0.53613c-0.55273-0.0752-1.05078,0.31152-1.12402,0.8584
	c-0.07324,0.54785,0.31152,1.05078,0.8584,1.12402l5.77777,0.77344c0.59801,0.22978,1.25296-0.13161,1.33173-0.81854
	c0.00061-0.00415,0.00323-0.00739,0.00378-0.01154l0.96875-7.23438c0.07324-0.54785-0.31152-1.05078-0.8584-1.12402
	c-0.55273-0.07031-1.05078,0.31152-1.12402,0.8584l-0.58258,4.3512C35.51251,6.54138,28.97455,3,22,3C10.4209,3,1,12.4209,1,24
	s9.4209,21,21,21s21-9.4209,21-21C43,23.44727,42.55273,23,42,23z"/>
<path fill="#223E49" d="M22,25c-0.55273,0-1-0.44775-1-1V11c0-0.55225,0.44727-1,1-1s1,0.44775,1,1v13
	C23,24.55225,22.55273,25,22,25z"/>
<path fill="#223E49" d="M34,25H22c-0.55273,0-1-0.44775-1-1s0.44727-1,1-1h12c0.55273,0,1,0.44775,1,1S34.55273,25,34,25z"/>
<path fill="#E86C60" d="M12.99902,36c-0.22266,0-0.44629-0.07422-0.63184-0.22607c-0.42773-0.34961-0.49121-0.97949-0.1416-1.40723
	l9-11c0.35059-0.42676,0.97949-0.48975,1.40723-0.14062c0.42773,0.34961,0.49121,0.97949,0.1416,1.40723l-9,11
	C13.57617,35.875,13.28906,36,12.99902,36z"/>
<circle fill="#223E49" cx="22" cy="24" r="3"/>
</g>
</symbol>
<symbol id="business-color_safe" viewBox="0 0 48 48"><g>
<path fill="#B3B3B3" d="M14,40H8c-0.55225,0-1,0.44775-1,1v5c0,0.55225,0.44775,1,1,1h6c0.55225,0,1-0.44775,1-1v-5
	C15,40.44775,14.55225,40,14,40z"/>
<path fill="#B3B3B3" d="M40,40h-6c-0.55225,0-1,0.44775-1,1v5c0,0.55225,0.44775,1,1,1h6c0.55225,0,1-0.44775,1-1v-5
	C41,40.44775,40.55225,40,40,40z"/>
<path fill="#E6E6E6" d="M45,43H3c-1.10457,0-2-0.89543-2-2V3c0-1.10457,0.89543-2,2-2h42c1.10457,0,2,0.89543,2,2v38
	C47,42.10457,46.10457,43,45,43z"/>
<path fill="#B3B3B3" d="M43,40H7c-0.55225,0-1-0.44775-1-1V5c0-0.55225,0.44775-1,1-1h36c0.55225,0,1,0.44775,1,1v34
	C44,39.55225,43.55225,40,43,40z M8,38h34V6H8V38z"/>
<path fill="#7A7A7A" d="M26,11c-6.06543,0-11,4.93457-11,11s4.93457,11,11,11s11-4.93457,11-11S32.06543,11,26,11z
	 M30.16699,24.75293C30.69098,23.9624,31,23.01733,31,22c0-1.01691-0.3089-1.96155-0.83252-2.75189l2.85828-2.85791
	C34.258,17.9303,35,19.87891,35,22c0,2.12158-0.74231,4.07062-1.97504,5.6109L30.16699,24.75293z M23,22c0-1.6543,1.3457-3,3-3
	s3,1.3457,3,3s-1.3457,3-3,3S23,23.6543,23,22z M31.61194,14.97589l-2.85803,2.85767C27.9632,17.30914,27.01776,17,26,17
	c-1.01733,0-1.9624,0.30902-2.75293,0.83301l-2.85797-2.85797C21.92938,13.74231,23.87842,13,26,13
	C28.12207,13,30.07153,13.74268,31.61194,14.97589z M18.97504,16.3891l2.85797,2.85797C21.30902,20.0376,21,20.98267,21,22
	c0,1.01776,0.30914,1.9632,0.83356,2.75391l-2.85767,2.85803C17.74268,26.07153,17,24.12207,17,22
	C17,19.87842,17.74231,17.92938,18.97504,16.3891z M20.3902,29.02576l2.85791-2.85828C24.03845,26.6911,24.98309,27,26,27
	c1.01733,0,1.9624-0.30902,2.75293-0.83301l2.85797,2.85797C30.07062,30.25769,28.12158,31,26,31
	C23.87891,31,21.9303,30.258,20.3902,29.02576z"/>
<path fill="#7A7A7A" d="M9,17H5c-0.55228,0-1-0.44772-1-1v-5c0-0.55229,0.44772-1,1-1h4c0.55229,0,1,0.44771,1,1v5
	C10,16.55228,9.55229,17,9,17z"/>
<path fill="#7A7A7A" d="M9,34H5c-0.55228,0-1-0.44772-1-1v-5c0-0.55228,0.44772-1,1-1h4c0.55229,0,1,0.44772,1,1v5
	C10,33.55228,9.55229,34,9,34z"/>
</g>
</symbol>
<symbol id="business-color_scale" viewBox="0 0 48 48"><g>
<path fill="#B3B3B3" d="M34.08105,7.60645c0.29752-0.69803,1.29222-0.8052,1.73291-0.1875l10,14
	c0.3208,0.44922,0.2168,1.07422-0.23291,1.39453C45.40527,22.93945,45.20215,23,45.00098,23
	c-0.31201,0-0.61963-0.14551-0.81494-0.41895l-8.96716-12.55402l-5.29993,12.36652C29.75684,22.77344,29.3877,23,28.99951,23
	c-0.13135,0-0.26514-0.02539-0.39355-0.08105c-0.50732-0.21777-0.74268-0.80566-0.5249-1.3125L34.08105,7.60645z"/>
<path fill="#444444" d="M32.99999,27h8.00002C44.31371,27,47,24.31371,47,21.00001V21H27v0.00001
	C27,24.31371,29.68629,27,32.99999,27z"/>
<path fill="#B3B3B3" d="M13.91895,7.60645c-0.29752-0.69803-1.29222-0.8052-1.73291-0.1875l-10,14
	c-0.3208,0.44922-0.2168,1.07422,0.23291,1.39453C2.59473,22.93945,2.79785,23,2.99902,23
	c0.31201,0,0.61963-0.14551,0.81494-0.41895l8.96716-12.55402l5.29993,12.36652C18.24316,22.77344,18.6123,23,19.00049,23
	c0.13135,0,0.26514-0.02539,0.39355-0.08105c0.50732-0.21777,0.74268-0.80566,0.5249-1.3125L13.91895,7.60645z"/>
<path fill="#636363" d="M38,7H10C9.44775,7,9,7.44727,9,8s0.44775,1,1,1h12v33h4V9h12c0.55225,0,1-0.44727,1-1S38.55225,7,38,7z"/>
<path fill="#444444" d="M29,39H19c-2.20914,0-4,1.79086-4,4v0h18v0C33,40.79086,31.20914,39,29,39z"/>
<path fill="#444444" d="M15.00001,27H6.99999C3.68629,27,1,24.31371,1,21.00001V21h20v0.00001C21,24.31371,18.31371,27,15.00001,27z
	"/>
</g>
</symbol>
<symbol id="business-color_sign" viewBox="0 0 48 48"><g>
<path fill="#B3B3B3" d="M6,37c-0.25586,0-0.51172-0.09766-0.70703-0.29297c-0.39062-0.39062-0.39062-1.02344,0-1.41406l2-2
	c0.39062-0.39062,1.02344-0.39062,1.41406,0s0.39062,1.02344,0,1.41406l-2,2C6.51172,36.90234,6.25586,37,6,37z"/>
<path fill="#B3B3B3" d="M42,45H6c-0.55225,0-1-0.44775-1-1s0.44775-1,1-1h36c0.55225,0,1,0.44775,1,1S42.55225,45,42,45z"/>
<path fill="#444444" d="M10,35.82666c-0.98047,0-1.96094-0.37305-2.70703-1.11963c-1.49268-1.49268-1.49268-3.92139,0-5.41406l12-12
	c0.39062-0.39062,1.02344-0.39062,1.41406,0l4,4c0.39062,0.39062,0.39062,1.02344,0,1.41406l-12,12
	C11.96094,35.45361,10.98047,35.82666,10,35.82666z"/>
<path fill="#EFD358" d="M33,24c-0.25586,0-0.51172-0.09766-0.70703-0.29297c-0.39062-0.39062-0.39062-1.02344,0-1.41406L39.58594,15
	l-2.29297-2.29297c-0.39062-0.39062-0.39062-1.02344,0-1.41406s1.02344-0.39062,1.41406,0l3,3
	c0.39062,0.39062,0.39062,1.02344,0,1.41406l-8,8C33.51172,23.90234,33.25586,24,33,24z"/>
<path fill="#636363" d="M38.70703,3.29297c-2.5957-2.5957-6.81836-2.5957-9.41406,0l-12,12
	c-0.39062,0.39062-0.39062,1.02344,0,1.41406l8,8C25.48828,24.90234,25.74414,25,26,25s0.51172-0.09766,0.70703-0.29297l12-12
	C41.30273,10.11182,41.30273,5.88818,38.70703,3.29297z"/>
</g>
</symbol>
<symbol id="business-color_signature" viewBox="0 0 48 48"><g>
<path fill="#EFD358" d="M36.70703,21.29297l-12-12c-0.30566-0.30518-0.76855-0.37744-1.1543-0.1875l-12,6
	c-0.28125,0.14111-0.48047,0.40576-0.53613,0.71582l-4,22c-0.05957,0.32275,0.04395,0.65381,0.27637,0.88574
	C7.48242,38.89648,7.7373,39,8,39c0.05957,0,0.11914-0.00537,0.17871-0.01611l22-4c0.30957-0.05615,0.5752-0.25537,0.71582-0.53662
	l6-12C37.08691,22.06201,37.01172,21.59717,36.70703,21.29297z"/>
<path fill="#444444" d="M43.70703,18.29297l-16-16c-0.39062-0.39062-1.02344-0.39062-1.41406,0l-5,5
	c-0.39062,0.39062-0.39062,1.02344,0,1.41406l16,16C37.48828,24.90234,37.74414,25,38,25s0.51172-0.09766,0.70703-0.29297l5-5
	C44.09766,19.31641,44.09766,18.68359,43.70703,18.29297z"/>
<path fill="#B29930" d="M23.12134,22.87866c-1.17157-1.17157-3.07111-1.17157-4.24268,0
	c-0.90674,0.90674-1.10321,2.24628-0.60638,3.35016L7.29004,37.29541C6.90137,37.6875,6.90332,38.3208,7.2959,38.70996
	C7.49023,38.90332,7.74512,39,8,39c0.25684,0,0.51465-0.09863,0.70996-0.29541l10.95081-11.03491
	c1.1239,0.56335,2.52289,0.38934,3.46057-0.5484C24.29291,25.94971,24.29291,24.05023,23.12134,22.87866z"/>
<path fill="#B3B3B3" d="M40,45H8c-0.55273,0-1-0.44775-1-1s0.44727-1,1-1h32c0.55273,0,1,0.44775,1,1S40.55273,45,40,45z"/>
</g>
</symbol>
<symbol id="business-color_stock" viewBox="0 0 48 48"><g>
<path fill="#3B3B3B" d="M45,3H3C1.89543,3,1,3.89543,1,5v38c0,1.10457,0.89543,2,2,2h42c1.10457,0,2-0.89543,2-2V5
	C47,3.89543,46.10457,3,45,3z"/>
<polygon fill="#B3B3B3" points="44.4194,15 40.6172,21.6543 35.5679,18.9126 34.6138,20.6704 41.3828,24.3457 45.5806,17 47,17 
	47,15 "/>
<polygon fill="#B3B3B3" points="23.855,24.6411 19.6416,21.481 15.9614,28.8408 10.0205,17.9487 5.7812,25.3672 3.4141,23 1,23 
	1,25 2.5859,25 6.2187,28.6328 9.9795,22.0513 16.0386,33.1592 20.3584,24.519 24.145,27.3589 29.5806,21.0908 28.0698,19.7808 "/>
<path fill="#BADEFC" d="M36,20c0-1.8613-1.2778-3.4121-3-3.8584V3h-2v13.1416c-1.7222,0.4463-3,1.9971-3,3.8584
	s1.2778,3.4121,3,3.8584V45h2V23.8584C34.7222,23.4121,36,21.8613,36,20z"/>
</g>
</symbol>
<symbol id="business-color_strategy" viewBox="0 0 48 48"><g>
<path fill="#636363" d="M37,12.92963V2c0-0.55231-0.44769-1-1-1h-3c-0.55231,0-1,0.44769-1,1v3h-5V2c0-0.55231-0.44769-1-1-1h-4
	c-0.55231,0-1,0.44769-1,1v3h-5V2c0-0.55231-0.44769-1-1-1h-3c-0.55231,0-1,0.44769-1,1v10.92963
	c0,0.38757,0.12311,0.7533,0.32581,1.07037h25.34839C36.87689,13.68292,37,13.3172,37,12.92963z"/>
<path fill="#636363" d="M11.02246,45.79004c-0.06348,0.2959,0.00977,0.60352,0.2002,0.83887C11.41211,46.86328,11.69824,47,12,47h24
	c0.30176,0,0.58789-0.13672,0.77734-0.37109c0.19043-0.23535,0.26367-0.54297,0.2002-0.83887L31,18H17L11.02246,45.79004z"/>
<path fill="#444444" d="M36.67419,14H11.32581c0.14703,0.23004,0.33087,0.43774,0.56482,0.59369L17,18h14l5.10938-3.40631
	C36.34332,14.43774,36.52716,14.23004,36.67419,14z"/>
<path fill="#444444" d="M40,43H8c-0.55273,0-1,0.44727-1,1v2c0,0.55273,0.44727,1,1,1h32c0.55273,0,1-0.44727,1-1v-2
	C41,43.44727,40.55273,43,40,43z"/>
</g>
</symbol>
<symbol id="business-color_wallet-90" viewBox="0 0 48 48"><g>
<path fill="#A67C52" d="M43,13c0-1.10457-0.89543-2-2-2H6c-1.6543,0-3-1.3457-3-3c0-0.55225-0.44775-1-1-1S1,7.44775,1,8v32
	c0,3.86599,3.13401,7,7,7h33c1.10457,0,2-0.89543,2-2V13z"/>
<path fill="#87613E" d="M46,24H36c-2.75684,0-5,2.24316-5,5s2.24316,5,5,5h10c0.55225,0,1-0.44775,1-1v-8
	C47,24.44775,46.55225,24,46,24z"/>
<path fill="#87613E" d="M4,5h28c1.10457,0,2,0.89543,2,2v4H4c-1.65685,0-3-1.34314-3-3V8C1,6.34314,2.34314,5,4,5z"/>
<circle fill="#EFD358" cx="36" cy="29" r="2"/>
<path fill="#4DA34D" d="M37,2H7C6.44772,2,6,2.44772,6,3v8h32V3C38,2.44772,37.55228,2,37,2z"/>
<rect x="9" y="5" fill="#9EDB9E" width="26" height="6"/>
</g>
</symbol></svg>